G04 #@! TF.GenerationSoftware,KiCad,Pcbnew,(5.0.0)*
G04 #@! TF.CreationDate,2018-10-17T10:54:46-04:00*
G04 #@! TF.ProjectId,Multi-PET-ROM,4D756C74692D5045542D524F4D2E6B69,rev?*
G04 #@! TF.SameCoordinates,Original*
G04 #@! TF.FileFunction,Legend,Top*
G04 #@! TF.FilePolarity,Positive*
%FSLAX46Y46*%
G04 Gerber Fmt 4.6, Leading zero omitted, Abs format (unit mm)*
G04 Created by KiCad (PCBNEW (5.0.0)) date 10/17/18 10:54:46*
%MOMM*%
%LPD*%
G01*
G04 APERTURE LIST*
%ADD10C,0.250000*%
%ADD11C,0.300000*%
%ADD12C,0.100000*%
%ADD13C,0.200000*%
%ADD14C,0.120000*%
%ADD15C,0.150000*%
G04 APERTURE END LIST*
D10*
X158980380Y-95720666D02*
X159599428Y-95720666D01*
X158856571Y-96092095D02*
X159289904Y-94792095D01*
X159723238Y-96092095D01*
X160837523Y-96092095D02*
X160094666Y-96092095D01*
X160466095Y-96092095D02*
X160466095Y-94792095D01*
X160342285Y-94977809D01*
X160218476Y-95101619D01*
X160094666Y-95163523D01*
X161332761Y-94915904D02*
X161394666Y-94854000D01*
X161518476Y-94792095D01*
X161828000Y-94792095D01*
X161951809Y-94854000D01*
X162013714Y-94915904D01*
X162075619Y-95039714D01*
X162075619Y-95163523D01*
X162013714Y-95349238D01*
X161270857Y-96092095D01*
X162075619Y-96092095D01*
D11*
X107290571Y-82939714D02*
X107362000Y-83011142D01*
X107433428Y-83154000D01*
X107433428Y-83511142D01*
X107362000Y-83654000D01*
X107290571Y-83725428D01*
X107147714Y-83796857D01*
X107004857Y-83796857D01*
X106790571Y-83725428D01*
X105933428Y-82868285D01*
X105933428Y-83796857D01*
X105933428Y-85225428D02*
X105933428Y-84368285D01*
X105933428Y-84796857D02*
X107433428Y-84796857D01*
X107219142Y-84654000D01*
X107076285Y-84511142D01*
X107004857Y-84368285D01*
X106076285Y-85868285D02*
X106004857Y-85939714D01*
X105933428Y-85868285D01*
X106004857Y-85796857D01*
X106076285Y-85868285D01*
X105933428Y-85868285D01*
X106790571Y-86796857D02*
X106862000Y-86654000D01*
X106933428Y-86582571D01*
X107076285Y-86511142D01*
X107147714Y-86511142D01*
X107290571Y-86582571D01*
X107362000Y-86654000D01*
X107433428Y-86796857D01*
X107433428Y-87082571D01*
X107362000Y-87225428D01*
X107290571Y-87296857D01*
X107147714Y-87368285D01*
X107076285Y-87368285D01*
X106933428Y-87296857D01*
X106862000Y-87225428D01*
X106790571Y-87082571D01*
X106790571Y-86796857D01*
X106719142Y-86654000D01*
X106647714Y-86582571D01*
X106504857Y-86511142D01*
X106219142Y-86511142D01*
X106076285Y-86582571D01*
X106004857Y-86654000D01*
X105933428Y-86796857D01*
X105933428Y-87082571D01*
X106004857Y-87225428D01*
X106076285Y-87296857D01*
X106219142Y-87368285D01*
X106504857Y-87368285D01*
X106647714Y-87296857D01*
X106719142Y-87225428D01*
X106790571Y-87082571D01*
X106933428Y-88654000D02*
X105933428Y-88654000D01*
X107504857Y-88296857D02*
X106433428Y-87939714D01*
X106433428Y-88868285D01*
X106933428Y-90082571D02*
X105933428Y-90082571D01*
X107504857Y-89725428D02*
X106433428Y-89368285D01*
X106433428Y-90296857D01*
X105933428Y-92011142D02*
X106933428Y-92011142D01*
X106790571Y-92011142D02*
X106862000Y-92082571D01*
X106933428Y-92225428D01*
X106933428Y-92439714D01*
X106862000Y-92582571D01*
X106719142Y-92654000D01*
X105933428Y-92654000D01*
X106719142Y-92654000D02*
X106862000Y-92725428D01*
X106933428Y-92868285D01*
X106933428Y-93082571D01*
X106862000Y-93225428D01*
X106719142Y-93296857D01*
X105933428Y-93296857D01*
X105933428Y-94011142D02*
X106933428Y-94011142D01*
X106790571Y-94011142D02*
X106862000Y-94082571D01*
X106933428Y-94225428D01*
X106933428Y-94439714D01*
X106862000Y-94582571D01*
X106719142Y-94654000D01*
X105933428Y-94654000D01*
X106719142Y-94654000D02*
X106862000Y-94725428D01*
X106933428Y-94868285D01*
X106933428Y-95082571D01*
X106862000Y-95225428D01*
X106719142Y-95296857D01*
X105933428Y-95296857D01*
X108712000Y-78232000D02*
X108712000Y-100076000D01*
X112268000Y-78232000D02*
X108125579Y-78232000D01*
X112268000Y-100076000D02*
X108125579Y-100076000D01*
X108712000Y-100076000D02*
X108125579Y-98949496D01*
X108712000Y-100076000D02*
X109298421Y-98949496D01*
X108712000Y-78232000D02*
X108125579Y-79358504D01*
X108712000Y-78232000D02*
X109298421Y-79358504D01*
X132168000Y-73270571D02*
X132168000Y-74270571D01*
X131810857Y-72699142D02*
X131453714Y-73770571D01*
X132382285Y-73770571D01*
X133025142Y-74270571D02*
X133310857Y-74270571D01*
X133453714Y-74199142D01*
X133525142Y-74127714D01*
X133668000Y-73913428D01*
X133739428Y-73627714D01*
X133739428Y-73056285D01*
X133668000Y-72913428D01*
X133596571Y-72842000D01*
X133453714Y-72770571D01*
X133168000Y-72770571D01*
X133025142Y-72842000D01*
X132953714Y-72913428D01*
X132882285Y-73056285D01*
X132882285Y-73413428D01*
X132953714Y-73556285D01*
X133025142Y-73627714D01*
X133168000Y-73699142D01*
X133453714Y-73699142D01*
X133596571Y-73627714D01*
X133668000Y-73556285D01*
X133739428Y-73413428D01*
X134382285Y-74127714D02*
X134453714Y-74199142D01*
X134382285Y-74270571D01*
X134310857Y-74199142D01*
X134382285Y-74127714D01*
X134382285Y-74270571D01*
X134953714Y-72770571D02*
X135953714Y-72770571D01*
X135310857Y-74270571D01*
X136739428Y-73413428D02*
X136596571Y-73342000D01*
X136525142Y-73270571D01*
X136453714Y-73127714D01*
X136453714Y-73056285D01*
X136525142Y-72913428D01*
X136596571Y-72842000D01*
X136739428Y-72770571D01*
X137025142Y-72770571D01*
X137168000Y-72842000D01*
X137239428Y-72913428D01*
X137310857Y-73056285D01*
X137310857Y-73127714D01*
X137239428Y-73270571D01*
X137168000Y-73342000D01*
X137025142Y-73413428D01*
X136739428Y-73413428D01*
X136596571Y-73484857D01*
X136525142Y-73556285D01*
X136453714Y-73699142D01*
X136453714Y-73984857D01*
X136525142Y-74127714D01*
X136596571Y-74199142D01*
X136739428Y-74270571D01*
X137025142Y-74270571D01*
X137168000Y-74199142D01*
X137239428Y-74127714D01*
X137310857Y-73984857D01*
X137310857Y-73699142D01*
X137239428Y-73556285D01*
X137168000Y-73484857D01*
X137025142Y-73413428D01*
X138596571Y-73270571D02*
X138596571Y-74270571D01*
X138239428Y-72699142D02*
X137882285Y-73770571D01*
X138810857Y-73770571D01*
X140525142Y-74270571D02*
X140525142Y-73270571D01*
X140525142Y-73413428D02*
X140596571Y-73342000D01*
X140739428Y-73270571D01*
X140953714Y-73270571D01*
X141096571Y-73342000D01*
X141168000Y-73484857D01*
X141168000Y-74270571D01*
X141168000Y-73484857D02*
X141239428Y-73342000D01*
X141382285Y-73270571D01*
X141596571Y-73270571D01*
X141739428Y-73342000D01*
X141810857Y-73484857D01*
X141810857Y-74270571D01*
X142525142Y-74270571D02*
X142525142Y-73270571D01*
X142525142Y-73413428D02*
X142596571Y-73342000D01*
X142739428Y-73270571D01*
X142953714Y-73270571D01*
X143096571Y-73342000D01*
X143168000Y-73484857D01*
X143168000Y-74270571D01*
X143168000Y-73484857D02*
X143239428Y-73342000D01*
X143382285Y-73270571D01*
X143596571Y-73270571D01*
X143739428Y-73342000D01*
X143810857Y-73484857D01*
X143810857Y-74270571D01*
X112776000Y-75692000D02*
X162560000Y-75692000D01*
X112776000Y-77724000D02*
X112776000Y-75105579D01*
X162560000Y-77724000D02*
X162560000Y-75105579D01*
X162560000Y-75692000D02*
X161433496Y-76278421D01*
X162560000Y-75692000D02*
X161433496Y-75105579D01*
X112776000Y-75692000D02*
X113902504Y-76278421D01*
X112776000Y-75692000D02*
X113902504Y-75105579D01*
X114891428Y-90407714D02*
X114820000Y-90336285D01*
X114748571Y-90193428D01*
X114748571Y-89836285D01*
X114820000Y-89693428D01*
X114891428Y-89622000D01*
X115034285Y-89550571D01*
X115177142Y-89550571D01*
X115391428Y-89622000D01*
X116248571Y-90479142D01*
X116248571Y-89550571D01*
X114748571Y-89050571D02*
X114748571Y-88050571D01*
X116248571Y-88693428D01*
X114748571Y-86764857D02*
X114748571Y-87479142D01*
X115462857Y-87550571D01*
X115391428Y-87479142D01*
X115320000Y-87336285D01*
X115320000Y-86979142D01*
X115391428Y-86836285D01*
X115462857Y-86764857D01*
X115605714Y-86693428D01*
X115962857Y-86693428D01*
X116105714Y-86764857D01*
X116177142Y-86836285D01*
X116248571Y-86979142D01*
X116248571Y-87336285D01*
X116177142Y-87479142D01*
X116105714Y-87550571D01*
X116248571Y-85264857D02*
X116248571Y-86122000D01*
X116248571Y-85693428D02*
X114748571Y-85693428D01*
X114962857Y-85836285D01*
X115105714Y-85979142D01*
X115177142Y-86122000D01*
X114891428Y-84693428D02*
X114820000Y-84622000D01*
X114748571Y-84479142D01*
X114748571Y-84122000D01*
X114820000Y-83979142D01*
X114891428Y-83907714D01*
X115034285Y-83836285D01*
X115177142Y-83836285D01*
X115391428Y-83907714D01*
X116248571Y-84764857D01*
X116248571Y-83836285D01*
X119091142Y-89179142D02*
X119034000Y-89122000D01*
X118976857Y-89007714D01*
X118976857Y-88722000D01*
X119034000Y-88607714D01*
X119091142Y-88550571D01*
X119205428Y-88493428D01*
X119319714Y-88493428D01*
X119491142Y-88550571D01*
X120176857Y-89236285D01*
X120176857Y-88493428D01*
X118976857Y-88093428D02*
X118976857Y-87350571D01*
X119434000Y-87750571D01*
X119434000Y-87579142D01*
X119491142Y-87464857D01*
X119548285Y-87407714D01*
X119662571Y-87350571D01*
X119948285Y-87350571D01*
X120062571Y-87407714D01*
X120119714Y-87464857D01*
X120176857Y-87579142D01*
X120176857Y-87922000D01*
X120119714Y-88036285D01*
X120062571Y-88093428D01*
X118976857Y-86950571D02*
X118976857Y-86207714D01*
X119434000Y-86607714D01*
X119434000Y-86436285D01*
X119491142Y-86322000D01*
X119548285Y-86264857D01*
X119662571Y-86207714D01*
X119948285Y-86207714D01*
X120062571Y-86264857D01*
X120119714Y-86322000D01*
X120176857Y-86436285D01*
X120176857Y-86779142D01*
X120119714Y-86893428D01*
X120062571Y-86950571D01*
X119091142Y-85750571D02*
X119034000Y-85693428D01*
X118976857Y-85579142D01*
X118976857Y-85293428D01*
X119034000Y-85179142D01*
X119091142Y-85122000D01*
X119205428Y-85064857D01*
X119319714Y-85064857D01*
X119491142Y-85122000D01*
X120176857Y-85807714D01*
X120176857Y-85064857D01*
D12*
X123770571Y-90384380D02*
X124103904Y-91384380D01*
X124437238Y-90384380D01*
X125151523Y-91336761D02*
X125056285Y-91384380D01*
X124865809Y-91384380D01*
X124770571Y-91336761D01*
X124722952Y-91241523D01*
X124722952Y-90860571D01*
X124770571Y-90765333D01*
X124865809Y-90717714D01*
X125056285Y-90717714D01*
X125151523Y-90765333D01*
X125199142Y-90860571D01*
X125199142Y-90955809D01*
X124722952Y-91051047D01*
X125627714Y-91384380D02*
X125627714Y-90717714D01*
X125627714Y-90908190D02*
X125675333Y-90812952D01*
X125722952Y-90765333D01*
X125818190Y-90717714D01*
X125913428Y-90717714D01*
X127532476Y-91384380D02*
X126961047Y-91384380D01*
X127246761Y-91384380D02*
X127246761Y-90384380D01*
X127151523Y-90527238D01*
X127056285Y-90622476D01*
X126961047Y-90670095D01*
X127961047Y-91289142D02*
X128008666Y-91336761D01*
X127961047Y-91384380D01*
X127913428Y-91336761D01*
X127961047Y-91289142D01*
X127961047Y-91384380D01*
X128627714Y-90384380D02*
X128722952Y-90384380D01*
X128818190Y-90432000D01*
X128865809Y-90479619D01*
X128913428Y-90574857D01*
X128961047Y-90765333D01*
X128961047Y-91003428D01*
X128913428Y-91193904D01*
X128865809Y-91289142D01*
X128818190Y-91336761D01*
X128722952Y-91384380D01*
X128627714Y-91384380D01*
X128532476Y-91336761D01*
X128484857Y-91289142D01*
X128437238Y-91193904D01*
X128389619Y-91003428D01*
X128389619Y-90765333D01*
X128437238Y-90574857D01*
X128484857Y-90479619D01*
X128532476Y-90432000D01*
X128627714Y-90384380D01*
X130151523Y-91003428D02*
X130913428Y-91003428D01*
X132103904Y-90479619D02*
X132151523Y-90432000D01*
X132246761Y-90384380D01*
X132484857Y-90384380D01*
X132580095Y-90432000D01*
X132627714Y-90479619D01*
X132675333Y-90574857D01*
X132675333Y-90670095D01*
X132627714Y-90812952D01*
X132056285Y-91384380D01*
X132675333Y-91384380D01*
X133294380Y-90384380D02*
X133389619Y-90384380D01*
X133484857Y-90432000D01*
X133532476Y-90479619D01*
X133580095Y-90574857D01*
X133627714Y-90765333D01*
X133627714Y-91003428D01*
X133580095Y-91193904D01*
X133532476Y-91289142D01*
X133484857Y-91336761D01*
X133389619Y-91384380D01*
X133294380Y-91384380D01*
X133199142Y-91336761D01*
X133151523Y-91289142D01*
X133103904Y-91193904D01*
X133056285Y-91003428D01*
X133056285Y-90765333D01*
X133103904Y-90574857D01*
X133151523Y-90479619D01*
X133199142Y-90432000D01*
X133294380Y-90384380D01*
X134580095Y-91384380D02*
X134008666Y-91384380D01*
X134294380Y-91384380D02*
X134294380Y-90384380D01*
X134199142Y-90527238D01*
X134103904Y-90622476D01*
X134008666Y-90670095D01*
X135151523Y-90812952D02*
X135056285Y-90765333D01*
X135008666Y-90717714D01*
X134961047Y-90622476D01*
X134961047Y-90574857D01*
X135008666Y-90479619D01*
X135056285Y-90432000D01*
X135151523Y-90384380D01*
X135342000Y-90384380D01*
X135437238Y-90432000D01*
X135484857Y-90479619D01*
X135532476Y-90574857D01*
X135532476Y-90622476D01*
X135484857Y-90717714D01*
X135437238Y-90765333D01*
X135342000Y-90812952D01*
X135151523Y-90812952D01*
X135056285Y-90860571D01*
X135008666Y-90908190D01*
X134961047Y-91003428D01*
X134961047Y-91193904D01*
X135008666Y-91289142D01*
X135056285Y-91336761D01*
X135151523Y-91384380D01*
X135342000Y-91384380D01*
X135437238Y-91336761D01*
X135484857Y-91289142D01*
X135532476Y-91193904D01*
X135532476Y-91003428D01*
X135484857Y-90908190D01*
X135437238Y-90860571D01*
X135342000Y-90812952D01*
X135961047Y-91003428D02*
X136722952Y-91003428D01*
X137722952Y-91384380D02*
X137151523Y-91384380D01*
X137437238Y-91384380D02*
X137437238Y-90384380D01*
X137342000Y-90527238D01*
X137246761Y-90622476D01*
X137151523Y-90670095D01*
X138342000Y-90384380D02*
X138437238Y-90384380D01*
X138532476Y-90432000D01*
X138580095Y-90479619D01*
X138627714Y-90574857D01*
X138675333Y-90765333D01*
X138675333Y-91003428D01*
X138627714Y-91193904D01*
X138580095Y-91289142D01*
X138532476Y-91336761D01*
X138437238Y-91384380D01*
X138342000Y-91384380D01*
X138246761Y-91336761D01*
X138199142Y-91289142D01*
X138151523Y-91193904D01*
X138103904Y-91003428D01*
X138103904Y-90765333D01*
X138151523Y-90574857D01*
X138199142Y-90479619D01*
X138246761Y-90432000D01*
X138342000Y-90384380D01*
X139103904Y-91003428D02*
X139865809Y-91003428D01*
X140865809Y-91384380D02*
X140294380Y-91384380D01*
X140580095Y-91384380D02*
X140580095Y-90384380D01*
X140484857Y-90527238D01*
X140389619Y-90622476D01*
X140294380Y-90670095D01*
X141199142Y-90384380D02*
X141865809Y-90384380D01*
X141437238Y-91384380D01*
D13*
X121739714Y-87202619D02*
X121739714Y-86102619D01*
X122158761Y-86102619D01*
X122263523Y-86155000D01*
X122315904Y-86207380D01*
X122368285Y-86312142D01*
X122368285Y-86469285D01*
X122315904Y-86574047D01*
X122263523Y-86626428D01*
X122158761Y-86678809D01*
X121739714Y-86678809D01*
X122839714Y-86626428D02*
X123206380Y-86626428D01*
X123363523Y-87202619D02*
X122839714Y-87202619D01*
X122839714Y-86102619D01*
X123363523Y-86102619D01*
X123677809Y-86102619D02*
X124306380Y-86102619D01*
X123992095Y-87202619D02*
X123992095Y-86102619D01*
X125458761Y-86050238D02*
X124515904Y-87464523D01*
X126454000Y-87097857D02*
X126401619Y-87150238D01*
X126244476Y-87202619D01*
X126139714Y-87202619D01*
X125982571Y-87150238D01*
X125877809Y-87045476D01*
X125825428Y-86940714D01*
X125773047Y-86731190D01*
X125773047Y-86574047D01*
X125825428Y-86364523D01*
X125877809Y-86259761D01*
X125982571Y-86155000D01*
X126139714Y-86102619D01*
X126244476Y-86102619D01*
X126401619Y-86155000D01*
X126454000Y-86207380D01*
X127292095Y-86626428D02*
X127449238Y-86678809D01*
X127501619Y-86731190D01*
X127554000Y-86835952D01*
X127554000Y-86993095D01*
X127501619Y-87097857D01*
X127449238Y-87150238D01*
X127344476Y-87202619D01*
X126925428Y-87202619D01*
X126925428Y-86102619D01*
X127292095Y-86102619D01*
X127396857Y-86155000D01*
X127449238Y-86207380D01*
X127501619Y-86312142D01*
X127501619Y-86416904D01*
X127449238Y-86521666D01*
X127396857Y-86574047D01*
X127292095Y-86626428D01*
X126925428Y-86626428D01*
X128025428Y-87202619D02*
X128025428Y-86102619D01*
X128392095Y-86888333D01*
X128758761Y-86102619D01*
X128758761Y-87202619D01*
X130120666Y-87202619D02*
X130120666Y-86102619D01*
X130487333Y-86888333D01*
X130854000Y-86102619D01*
X130854000Y-87202619D01*
X131849238Y-86469285D02*
X131849238Y-87202619D01*
X131377809Y-86469285D02*
X131377809Y-87045476D01*
X131430190Y-87150238D01*
X131534952Y-87202619D01*
X131692095Y-87202619D01*
X131796857Y-87150238D01*
X131849238Y-87097857D01*
X132530190Y-87202619D02*
X132425428Y-87150238D01*
X132373047Y-87045476D01*
X132373047Y-86102619D01*
X132792095Y-86469285D02*
X133211142Y-86469285D01*
X132949238Y-86102619D02*
X132949238Y-87045476D01*
X133001619Y-87150238D01*
X133106380Y-87202619D01*
X133211142Y-87202619D01*
X133577809Y-87202619D02*
X133577809Y-86469285D01*
X133577809Y-86102619D02*
X133525428Y-86155000D01*
X133577809Y-86207380D01*
X133630190Y-86155000D01*
X133577809Y-86102619D01*
X133577809Y-86207380D01*
X134101619Y-86783571D02*
X134939714Y-86783571D01*
X136092095Y-87202619D02*
X135725428Y-86678809D01*
X135463523Y-87202619D02*
X135463523Y-86102619D01*
X135882571Y-86102619D01*
X135987333Y-86155000D01*
X136039714Y-86207380D01*
X136092095Y-86312142D01*
X136092095Y-86469285D01*
X136039714Y-86574047D01*
X135987333Y-86626428D01*
X135882571Y-86678809D01*
X135463523Y-86678809D01*
X136773047Y-86102619D02*
X136982571Y-86102619D01*
X137087333Y-86155000D01*
X137192095Y-86259761D01*
X137244476Y-86469285D01*
X137244476Y-86835952D01*
X137192095Y-87045476D01*
X137087333Y-87150238D01*
X136982571Y-87202619D01*
X136773047Y-87202619D01*
X136668285Y-87150238D01*
X136563523Y-87045476D01*
X136511142Y-86835952D01*
X136511142Y-86469285D01*
X136563523Y-86259761D01*
X136668285Y-86155000D01*
X136773047Y-86102619D01*
X137715904Y-87202619D02*
X137715904Y-86102619D01*
X138082571Y-86888333D01*
X138449238Y-86102619D01*
X138449238Y-87202619D01*
X139758761Y-86888333D02*
X140282571Y-86888333D01*
X139654000Y-87202619D02*
X140020666Y-86102619D01*
X140387333Y-87202619D01*
X141225428Y-87202619D02*
X141225428Y-86102619D01*
X141225428Y-87150238D02*
X141120666Y-87202619D01*
X140911142Y-87202619D01*
X140806380Y-87150238D01*
X140754000Y-87097857D01*
X140701619Y-86993095D01*
X140701619Y-86678809D01*
X140754000Y-86574047D01*
X140806380Y-86521666D01*
X140911142Y-86469285D01*
X141120666Y-86469285D01*
X141225428Y-86521666D01*
X142220666Y-87202619D02*
X142220666Y-86626428D01*
X142168285Y-86521666D01*
X142063523Y-86469285D01*
X141854000Y-86469285D01*
X141749238Y-86521666D01*
X142220666Y-87150238D02*
X142115904Y-87202619D01*
X141854000Y-87202619D01*
X141749238Y-87150238D01*
X141696857Y-87045476D01*
X141696857Y-86940714D01*
X141749238Y-86835952D01*
X141854000Y-86783571D01*
X142115904Y-86783571D01*
X142220666Y-86731190D01*
X142744476Y-86469285D02*
X142744476Y-87569285D01*
X142744476Y-86521666D02*
X142849238Y-86469285D01*
X143058761Y-86469285D01*
X143163523Y-86521666D01*
X143215904Y-86574047D01*
X143268285Y-86678809D01*
X143268285Y-86993095D01*
X143215904Y-87097857D01*
X143163523Y-87150238D01*
X143058761Y-87202619D01*
X142849238Y-87202619D01*
X142744476Y-87150238D01*
X143582571Y-86469285D02*
X144001619Y-86469285D01*
X143739714Y-86102619D02*
X143739714Y-87045476D01*
X143792095Y-87150238D01*
X143896857Y-87202619D01*
X144001619Y-87202619D01*
X144787333Y-87150238D02*
X144682571Y-87202619D01*
X144473047Y-87202619D01*
X144368285Y-87150238D01*
X144315904Y-87045476D01*
X144315904Y-86626428D01*
X144368285Y-86521666D01*
X144473047Y-86469285D01*
X144682571Y-86469285D01*
X144787333Y-86521666D01*
X144839714Y-86626428D01*
X144839714Y-86731190D01*
X144315904Y-86835952D01*
X145311142Y-87202619D02*
X145311142Y-86469285D01*
X145311142Y-86678809D02*
X145363523Y-86574047D01*
X145415904Y-86521666D01*
X145520666Y-86469285D01*
X145625428Y-86469285D01*
X124856380Y-89471666D02*
X124804000Y-89419285D01*
X124699238Y-89262142D01*
X124646857Y-89157380D01*
X124594476Y-89000238D01*
X124542095Y-88738333D01*
X124542095Y-88528809D01*
X124594476Y-88266904D01*
X124646857Y-88109761D01*
X124699238Y-88005000D01*
X124804000Y-87847857D01*
X124856380Y-87795476D01*
X125904000Y-88947857D02*
X125851619Y-89000238D01*
X125694476Y-89052619D01*
X125589714Y-89052619D01*
X125432571Y-89000238D01*
X125327809Y-88895476D01*
X125275428Y-88790714D01*
X125223047Y-88581190D01*
X125223047Y-88424047D01*
X125275428Y-88214523D01*
X125327809Y-88109761D01*
X125432571Y-88005000D01*
X125589714Y-87952619D01*
X125694476Y-87952619D01*
X125851619Y-88005000D01*
X125904000Y-88057380D01*
X126270666Y-89471666D02*
X126323047Y-89419285D01*
X126427809Y-89262142D01*
X126480190Y-89157380D01*
X126532571Y-89000238D01*
X126584952Y-88738333D01*
X126584952Y-88528809D01*
X126532571Y-88266904D01*
X126480190Y-88109761D01*
X126427809Y-88005000D01*
X126323047Y-87847857D01*
X126270666Y-87795476D01*
X127056380Y-88057380D02*
X127108761Y-88005000D01*
X127213523Y-87952619D01*
X127475428Y-87952619D01*
X127580190Y-88005000D01*
X127632571Y-88057380D01*
X127684952Y-88162142D01*
X127684952Y-88266904D01*
X127632571Y-88424047D01*
X127004000Y-89052619D01*
X127684952Y-89052619D01*
X128365904Y-87952619D02*
X128470666Y-87952619D01*
X128575428Y-88005000D01*
X128627809Y-88057380D01*
X128680190Y-88162142D01*
X128732571Y-88371666D01*
X128732571Y-88633571D01*
X128680190Y-88843095D01*
X128627809Y-88947857D01*
X128575428Y-89000238D01*
X128470666Y-89052619D01*
X128365904Y-89052619D01*
X128261142Y-89000238D01*
X128208761Y-88947857D01*
X128156380Y-88843095D01*
X128104000Y-88633571D01*
X128104000Y-88371666D01*
X128156380Y-88162142D01*
X128208761Y-88057380D01*
X128261142Y-88005000D01*
X128365904Y-87952619D01*
X129780190Y-89052619D02*
X129151619Y-89052619D01*
X129465904Y-89052619D02*
X129465904Y-87952619D01*
X129361142Y-88109761D01*
X129256380Y-88214523D01*
X129151619Y-88266904D01*
X130408761Y-88424047D02*
X130304000Y-88371666D01*
X130251619Y-88319285D01*
X130199238Y-88214523D01*
X130199238Y-88162142D01*
X130251619Y-88057380D01*
X130304000Y-88005000D01*
X130408761Y-87952619D01*
X130618285Y-87952619D01*
X130723047Y-88005000D01*
X130775428Y-88057380D01*
X130827809Y-88162142D01*
X130827809Y-88214523D01*
X130775428Y-88319285D01*
X130723047Y-88371666D01*
X130618285Y-88424047D01*
X130408761Y-88424047D01*
X130304000Y-88476428D01*
X130251619Y-88528809D01*
X130199238Y-88633571D01*
X130199238Y-88843095D01*
X130251619Y-88947857D01*
X130304000Y-89000238D01*
X130408761Y-89052619D01*
X130618285Y-89052619D01*
X130723047Y-89000238D01*
X130775428Y-88947857D01*
X130827809Y-88843095D01*
X130827809Y-88633571D01*
X130775428Y-88528809D01*
X130723047Y-88476428D01*
X130618285Y-88424047D01*
X132084952Y-89000238D02*
X132242095Y-89052619D01*
X132504000Y-89052619D01*
X132608761Y-89000238D01*
X132661142Y-88947857D01*
X132713523Y-88843095D01*
X132713523Y-88738333D01*
X132661142Y-88633571D01*
X132608761Y-88581190D01*
X132504000Y-88528809D01*
X132294476Y-88476428D01*
X132189714Y-88424047D01*
X132137333Y-88371666D01*
X132084952Y-88266904D01*
X132084952Y-88162142D01*
X132137333Y-88057380D01*
X132189714Y-88005000D01*
X132294476Y-87952619D01*
X132556380Y-87952619D01*
X132713523Y-88005000D01*
X133027809Y-88319285D02*
X133446857Y-88319285D01*
X133184952Y-87952619D02*
X133184952Y-88895476D01*
X133237333Y-89000238D01*
X133342095Y-89052619D01*
X133446857Y-89052619D01*
X134232571Y-89000238D02*
X134127809Y-89052619D01*
X133918285Y-89052619D01*
X133813523Y-89000238D01*
X133761142Y-88895476D01*
X133761142Y-88476428D01*
X133813523Y-88371666D01*
X133918285Y-88319285D01*
X134127809Y-88319285D01*
X134232571Y-88371666D01*
X134284952Y-88476428D01*
X134284952Y-88581190D01*
X133761142Y-88685952D01*
X134651619Y-88319285D02*
X134913523Y-89052619D01*
X135175428Y-88319285D01*
X136013523Y-89000238D02*
X135908761Y-89052619D01*
X135699238Y-89052619D01*
X135594476Y-89000238D01*
X135542095Y-88895476D01*
X135542095Y-88476428D01*
X135594476Y-88371666D01*
X135699238Y-88319285D01*
X135908761Y-88319285D01*
X136013523Y-88371666D01*
X136065904Y-88476428D01*
X136065904Y-88581190D01*
X135542095Y-88685952D01*
X137689714Y-87952619D02*
X137689714Y-88738333D01*
X137637333Y-88895476D01*
X137532571Y-89000238D01*
X137375428Y-89052619D01*
X137270666Y-89052619D01*
X138213523Y-88947857D02*
X138265904Y-89000238D01*
X138213523Y-89052619D01*
X138161142Y-89000238D01*
X138213523Y-88947857D01*
X138213523Y-89052619D01*
X140151619Y-88005000D02*
X140046857Y-87952619D01*
X139889714Y-87952619D01*
X139732571Y-88005000D01*
X139627809Y-88109761D01*
X139575428Y-88214523D01*
X139523047Y-88424047D01*
X139523047Y-88581190D01*
X139575428Y-88790714D01*
X139627809Y-88895476D01*
X139732571Y-89000238D01*
X139889714Y-89052619D01*
X139994476Y-89052619D01*
X140151619Y-89000238D01*
X140204000Y-88947857D01*
X140204000Y-88581190D01*
X139994476Y-88581190D01*
X140675428Y-89052619D02*
X140675428Y-88319285D01*
X140675428Y-88528809D02*
X140727809Y-88424047D01*
X140780190Y-88371666D01*
X140884952Y-88319285D01*
X140989714Y-88319285D01*
X141827809Y-89052619D02*
X141827809Y-88476428D01*
X141775428Y-88371666D01*
X141670666Y-88319285D01*
X141461142Y-88319285D01*
X141356380Y-88371666D01*
X141827809Y-89000238D02*
X141723047Y-89052619D01*
X141461142Y-89052619D01*
X141356380Y-89000238D01*
X141304000Y-88895476D01*
X141304000Y-88790714D01*
X141356380Y-88685952D01*
X141461142Y-88633571D01*
X141723047Y-88633571D01*
X141827809Y-88581190D01*
X142246857Y-88319285D02*
X142508761Y-89052619D01*
X142770666Y-88319285D02*
X142508761Y-89052619D01*
X142404000Y-89314523D01*
X142351619Y-89366904D01*
X142246857Y-89419285D01*
D14*
G04 #@! TO.C,SW1*
X155972000Y-83700000D02*
X154602000Y-83700000D01*
X154602000Y-83700000D02*
X154602000Y-94100000D01*
X154602000Y-94100000D02*
X159342000Y-94100000D01*
X159342000Y-94100000D02*
X159342000Y-83700000D01*
X159342000Y-83700000D02*
X157972000Y-83700000D01*
X157972000Y-83700000D02*
G75*
G02X155972000Y-83700000I-1000000J0D01*
G01*
G04 #@! TO.C,U1*
X118244000Y-91678000D02*
X118244000Y-96858000D01*
X118244000Y-96858000D02*
X148964000Y-96858000D01*
X148964000Y-96858000D02*
X148964000Y-84498000D01*
X148964000Y-84498000D02*
X118244000Y-84498000D01*
X118244000Y-84498000D02*
X118244000Y-89678000D01*
X118244000Y-89678000D02*
G75*
G02X118244000Y-91678000I0J-1000000D01*
G01*
G04 #@! TO.C,U2*
X113195750Y-88572850D02*
X113195750Y-93752850D01*
X113195750Y-93752850D02*
X148995750Y-93752850D01*
X148995750Y-93752850D02*
X148995750Y-81392850D01*
X148995750Y-81392850D02*
X113195750Y-81392850D01*
X113195750Y-81392850D02*
X113195750Y-86572850D01*
X113195750Y-86572850D02*
G75*
G02X113195750Y-88572850I0J-1000000D01*
G01*
G04 #@! TO.C,J1*
X154492000Y-96580000D02*
X154492000Y-93920000D01*
X154432000Y-96580000D02*
X154492000Y-96580000D01*
X154432000Y-93920000D02*
X154492000Y-93920000D01*
X154432000Y-96580000D02*
X154432000Y-93920000D01*
X153162000Y-96580000D02*
X151832000Y-96580000D01*
X151832000Y-96580000D02*
X151832000Y-95250000D01*
G04 #@! TO.C,RN1*
X148968000Y-96690000D02*
X151768000Y-96690000D01*
X151768000Y-96690000D02*
X151768000Y-83650000D01*
X151768000Y-83650000D02*
X148968000Y-83650000D01*
X148968000Y-83650000D02*
X148968000Y-96690000D01*
X148968000Y-93980000D02*
X151768000Y-93980000D01*
G04 #@! TO.C,SW1*
D15*
X158646761Y-88201333D02*
X158694380Y-88058476D01*
X158694380Y-87820380D01*
X158646761Y-87725142D01*
X158599142Y-87677523D01*
X158503904Y-87629904D01*
X158408666Y-87629904D01*
X158313428Y-87677523D01*
X158265809Y-87725142D01*
X158218190Y-87820380D01*
X158170571Y-88010857D01*
X158122952Y-88106095D01*
X158075333Y-88153714D01*
X157980095Y-88201333D01*
X157884857Y-88201333D01*
X157789619Y-88153714D01*
X157742000Y-88106095D01*
X157694380Y-88010857D01*
X157694380Y-87772761D01*
X157742000Y-87629904D01*
X157694380Y-87296571D02*
X158694380Y-87058476D01*
X157980095Y-86868000D01*
X158694380Y-86677523D01*
X157694380Y-86439428D01*
X158694380Y-85534666D02*
X158694380Y-86106095D01*
X158694380Y-85820380D02*
X157694380Y-85820380D01*
X157837238Y-85915619D01*
X157932476Y-86010857D01*
X157980095Y-86106095D01*
G04 #@! TO.C,U1*
X118832380Y-93217904D02*
X119641904Y-93217904D01*
X119737142Y-93170285D01*
X119784761Y-93122666D01*
X119832380Y-93027428D01*
X119832380Y-92836952D01*
X119784761Y-92741714D01*
X119737142Y-92694095D01*
X119641904Y-92646476D01*
X118832380Y-92646476D01*
X119832380Y-91646476D02*
X119832380Y-92217904D01*
X119832380Y-91932190D02*
X118832380Y-91932190D01*
X118975238Y-92027428D01*
X119070476Y-92122666D01*
X119118095Y-92217904D01*
G04 #@! TO.C,U2*
X113752380Y-93217904D02*
X114561904Y-93217904D01*
X114657142Y-93170285D01*
X114704761Y-93122666D01*
X114752380Y-93027428D01*
X114752380Y-92836952D01*
X114704761Y-92741714D01*
X114657142Y-92694095D01*
X114561904Y-92646476D01*
X113752380Y-92646476D01*
X113847619Y-92217904D02*
X113800000Y-92170285D01*
X113752380Y-92075047D01*
X113752380Y-91836952D01*
X113800000Y-91741714D01*
X113847619Y-91694095D01*
X113942857Y-91646476D01*
X114038095Y-91646476D01*
X114180952Y-91694095D01*
X114752380Y-92265523D01*
X114752380Y-91646476D01*
G04 #@! TO.C,J1*
X156932380Y-95837333D02*
X157646666Y-95837333D01*
X157789523Y-95884952D01*
X157884761Y-95980190D01*
X157932380Y-96123047D01*
X157932380Y-96218285D01*
X157932380Y-94837333D02*
X157932380Y-95408761D01*
X157932380Y-95123047D02*
X156932380Y-95123047D01*
X157075238Y-95218285D01*
X157170476Y-95313523D01*
X157218095Y-95408761D01*
G04 #@! TO.C,RN1*
X148534380Y-88828476D02*
X148058190Y-89161809D01*
X148534380Y-89399904D02*
X147534380Y-89399904D01*
X147534380Y-89018952D01*
X147582000Y-88923714D01*
X147629619Y-88876095D01*
X147724857Y-88828476D01*
X147867714Y-88828476D01*
X147962952Y-88876095D01*
X148010571Y-88923714D01*
X148058190Y-89018952D01*
X148058190Y-89399904D01*
X148534380Y-88399904D02*
X147534380Y-88399904D01*
X148534380Y-87828476D01*
X147534380Y-87828476D01*
X148534380Y-86828476D02*
X148534380Y-87399904D01*
X148534380Y-87114190D02*
X147534380Y-87114190D01*
X147677238Y-87209428D01*
X147772476Y-87304666D01*
X147820095Y-87399904D01*
G04 #@! TD*
M02*
