G04 #@! TF.GenerationSoftware,KiCad,Pcbnew,(5.0.0)*
G04 #@! TF.CreationDate,2018-10-17T10:54:46-04:00*
G04 #@! TF.ProjectId,Multi-PET-ROM,4D756C74692D5045542D524F4D2E6B69,rev?*
G04 #@! TF.SameCoordinates,Original*
G04 #@! TF.FileFunction,Soldermask,Top*
G04 #@! TF.FilePolarity,Negative*
%FSLAX46Y46*%
G04 Gerber Fmt 4.6, Leading zero omitted, Abs format (unit mm)*
G04 Created by KiCad (PCBNEW (5.0.0)) date 10/17/18 10:54:46*
%MOMM*%
%LPD*%
G01*
G04 APERTURE LIST*
%ADD10R,2.800000X2.000000*%
%ADD11O,2.800000X2.000000*%
%ADD12R,2.000000X2.800000*%
%ADD13O,2.000000X2.800000*%
%ADD14R,2.100000X2.100000*%
%ADD15R,2.000000X2.000000*%
%ADD16O,2.000000X2.000000*%
G04 APERTURE END LIST*
D10*
G04 #@! TO.C,SW1*
X153162000Y-85090000D03*
D11*
X160782000Y-92710000D03*
X153162000Y-87630000D03*
X160782000Y-90170000D03*
X153162000Y-90170000D03*
X160782000Y-87630000D03*
X153162000Y-92710000D03*
X160782000Y-85090000D03*
G04 #@! TD*
D12*
G04 #@! TO.C,U1*
X119634000Y-98298000D03*
D13*
X147574000Y-83058000D03*
X122174000Y-98298000D03*
X145034000Y-83058000D03*
X124714000Y-98298000D03*
X142494000Y-83058000D03*
X127254000Y-98298000D03*
X139954000Y-83058000D03*
X129794000Y-98298000D03*
X137414000Y-83058000D03*
X132334000Y-98298000D03*
X134874000Y-83058000D03*
X134874000Y-98298000D03*
X132334000Y-83058000D03*
X137414000Y-98298000D03*
X129794000Y-83058000D03*
X139954000Y-98298000D03*
X127254000Y-83058000D03*
X142494000Y-98298000D03*
X124714000Y-83058000D03*
X145034000Y-98298000D03*
X122174000Y-83058000D03*
X147574000Y-98298000D03*
X119634000Y-83058000D03*
G04 #@! TD*
D12*
G04 #@! TO.C,U2*
X114585750Y-95192850D03*
D13*
X147605750Y-79952850D03*
X117125750Y-95192850D03*
X145065750Y-79952850D03*
X119665750Y-95192850D03*
X142525750Y-79952850D03*
X122205750Y-95192850D03*
X139985750Y-79952850D03*
X124745750Y-95192850D03*
X137445750Y-79952850D03*
X127285750Y-95192850D03*
X134905750Y-79952850D03*
X129825750Y-95192850D03*
X132365750Y-79952850D03*
X132365750Y-95192850D03*
X129825750Y-79952850D03*
X134905750Y-95192850D03*
X127285750Y-79952850D03*
X137445750Y-95192850D03*
X124745750Y-79952850D03*
X139985750Y-95192850D03*
X122205750Y-79952850D03*
X142525750Y-95192850D03*
X119665750Y-79952850D03*
X145065750Y-95192850D03*
X117125750Y-79952850D03*
X147605750Y-95192850D03*
X114585750Y-79952850D03*
G04 #@! TD*
D14*
G04 #@! TO.C,J1*
X153162000Y-95250000D03*
G04 #@! TD*
D15*
G04 #@! TO.C,RN1*
X150368000Y-95250000D03*
D16*
X150368000Y-92710000D03*
X150368000Y-90170000D03*
X150368000Y-87630000D03*
X150368000Y-85090000D03*
G04 #@! TD*
M02*
