M48
;DRILL file {KiCad (5.0.0)} date 10/17/18 10:54:53
;FORMAT={-:-/ absolute / inch / decimal}
FMAT,2
INCH,TZ
T1C0.0157
T2C0.0315
T3C0.0394
%
G90
G05
M72
T1
X4.82Y-3.58
X5.06Y-3.62
X5.56Y-3.43
X5.71Y-3.48
T2
X4.5112Y-3.1477
X4.5112Y-3.7477
X4.6113Y-3.1477
X4.6113Y-3.7477
X4.7112Y-3.1477
X4.7112Y-3.7477
X4.8113Y-3.1477
X4.8113Y-3.7477
X4.9112Y-3.1477
X4.9112Y-3.7477
X5.0112Y-3.1477
X5.0112Y-3.7477
X5.1113Y-3.1477
X5.1113Y-3.7477
X5.2112Y-3.1477
X5.2112Y-3.7477
X5.3113Y-3.1477
X5.3113Y-3.7477
X5.4112Y-3.1477
X5.4112Y-3.7477
X5.5112Y-3.1477
X5.5112Y-3.7477
X5.6113Y-3.1477
X5.6113Y-3.7477
X5.7112Y-3.1477
X5.7112Y-3.7477
X5.8113Y-3.1477
X5.8113Y-3.7477
X5.92Y-3.35
X5.92Y-3.45
X5.92Y-3.55
X5.92Y-3.65
X5.92Y-3.75
X4.71Y-3.27
X4.71Y-3.87
X4.81Y-3.27
X4.81Y-3.87
X4.91Y-3.27
X4.91Y-3.87
X5.01Y-3.27
X5.01Y-3.87
X5.11Y-3.27
X5.11Y-3.87
X5.21Y-3.27
X5.21Y-3.87
X5.31Y-3.27
X5.31Y-3.87
X5.41Y-3.27
X5.41Y-3.87
X5.51Y-3.27
X5.51Y-3.87
X5.61Y-3.27
X5.61Y-3.87
X5.71Y-3.27
X5.71Y-3.87
X5.81Y-3.27
X5.81Y-3.87
X6.03Y-3.35
X6.03Y-3.45
X6.03Y-3.55
X6.03Y-3.65
X6.33Y-3.35
X6.33Y-3.45
X6.33Y-3.55
X6.33Y-3.65
T3
X6.03Y-3.75
T0
M30
