G04 #@! TF.GenerationSoftware,KiCad,Pcbnew,(5.0.0)*
G04 #@! TF.CreationDate,2018-10-17T10:54:46-04:00*
G04 #@! TF.ProjectId,Multi-PET-ROM,4D756C74692D5045542D524F4D2E6B69,rev?*
G04 #@! TF.SameCoordinates,Original*
G04 #@! TF.FileFunction,Copper,L2,Bot,Signal*
G04 #@! TF.FilePolarity,Positive*
%FSLAX46Y46*%
G04 Gerber Fmt 4.6, Leading zero omitted, Abs format (unit mm)*
G04 Created by KiCad (PCBNEW (5.0.0)) date 10/17/18 10:54:46*
%MOMM*%
%LPD*%
G01*
G04 APERTURE LIST*
G04 #@! TA.AperFunction,ComponentPad*
%ADD10R,2.400000X1.600000*%
G04 #@! TD*
G04 #@! TA.AperFunction,ComponentPad*
%ADD11O,2.400000X1.600000*%
G04 #@! TD*
G04 #@! TA.AperFunction,ComponentPad*
%ADD12R,1.600000X2.400000*%
G04 #@! TD*
G04 #@! TA.AperFunction,ComponentPad*
%ADD13O,1.600000X2.400000*%
G04 #@! TD*
G04 #@! TA.AperFunction,ComponentPad*
%ADD14R,1.700000X1.700000*%
G04 #@! TD*
G04 #@! TA.AperFunction,ComponentPad*
%ADD15R,1.600000X1.600000*%
G04 #@! TD*
G04 #@! TA.AperFunction,ComponentPad*
%ADD16O,1.600000X1.600000*%
G04 #@! TD*
G04 #@! TA.AperFunction,ViaPad*
%ADD17C,0.600000*%
G04 #@! TD*
G04 #@! TA.AperFunction,Conductor*
%ADD18C,0.400000*%
G04 #@! TD*
G04 #@! TA.AperFunction,Conductor*
%ADD19C,0.300000*%
G04 #@! TD*
G04 #@! TA.AperFunction,Conductor*
%ADD20C,0.750000*%
G04 #@! TD*
G04 #@! TA.AperFunction,Conductor*
%ADD21C,0.500000*%
G04 #@! TD*
G04 APERTURE END LIST*
D10*
G04 #@! TO.P,SW1,1*
G04 #@! TO.N,A15*
X153162000Y-85090000D03*
D11*
G04 #@! TO.P,SW1,5*
G04 #@! TO.N,5V*
X160782000Y-92710000D03*
G04 #@! TO.P,SW1,2*
G04 #@! TO.N,A14*
X153162000Y-87630000D03*
G04 #@! TO.P,SW1,6*
G04 #@! TO.N,5V*
X160782000Y-90170000D03*
G04 #@! TO.P,SW1,3*
G04 #@! TO.N,A13*
X153162000Y-90170000D03*
G04 #@! TO.P,SW1,7*
G04 #@! TO.N,5V*
X160782000Y-87630000D03*
G04 #@! TO.P,SW1,4*
G04 #@! TO.N,A12*
X153162000Y-92710000D03*
G04 #@! TO.P,SW1,8*
G04 #@! TO.N,5V*
X160782000Y-85090000D03*
G04 #@! TD*
D12*
G04 #@! TO.P,U1,1*
G04 #@! TO.N,A7*
X119634000Y-98298000D03*
D13*
G04 #@! TO.P,U1,13*
G04 #@! TO.N,D3*
X147574000Y-83058000D03*
G04 #@! TO.P,U1,2*
G04 #@! TO.N,A6*
X122174000Y-98298000D03*
G04 #@! TO.P,U1,14*
G04 #@! TO.N,D4*
X145034000Y-83058000D03*
G04 #@! TO.P,U1,3*
G04 #@! TO.N,A5*
X124714000Y-98298000D03*
G04 #@! TO.P,U1,15*
G04 #@! TO.N,D5*
X142494000Y-83058000D03*
G04 #@! TO.P,U1,4*
G04 #@! TO.N,A4*
X127254000Y-98298000D03*
G04 #@! TO.P,U1,16*
G04 #@! TO.N,D6*
X139954000Y-83058000D03*
G04 #@! TO.P,U1,5*
G04 #@! TO.N,A3*
X129794000Y-98298000D03*
G04 #@! TO.P,U1,17*
G04 #@! TO.N,D7*
X137414000Y-83058000D03*
G04 #@! TO.P,U1,6*
G04 #@! TO.N,A2*
X132334000Y-98298000D03*
G04 #@! TO.P,U1,18*
G04 #@! TO.N,A11*
X134874000Y-83058000D03*
G04 #@! TO.P,U1,7*
G04 #@! TO.N,A1*
X134874000Y-98298000D03*
G04 #@! TO.P,U1,19*
G04 #@! TO.N,A10*
X132334000Y-83058000D03*
G04 #@! TO.P,U1,8*
G04 #@! TO.N,A0*
X137414000Y-98298000D03*
G04 #@! TO.P,U1,20*
G04 #@! TO.N,~CS*
X129794000Y-83058000D03*
G04 #@! TO.P,U1,9*
G04 #@! TO.N,D0*
X139954000Y-98298000D03*
G04 #@! TO.P,U1,21*
G04 #@! TO.N,N/C*
X127254000Y-83058000D03*
G04 #@! TO.P,U1,10*
G04 #@! TO.N,D1*
X142494000Y-98298000D03*
G04 #@! TO.P,U1,22*
G04 #@! TO.N,A9*
X124714000Y-83058000D03*
G04 #@! TO.P,U1,11*
G04 #@! TO.N,D2*
X145034000Y-98298000D03*
G04 #@! TO.P,U1,23*
G04 #@! TO.N,A8*
X122174000Y-83058000D03*
G04 #@! TO.P,U1,12*
G04 #@! TO.N,GND*
X147574000Y-98298000D03*
G04 #@! TO.P,U1,24*
G04 #@! TO.N,5V*
X119634000Y-83058000D03*
G04 #@! TD*
D12*
G04 #@! TO.P,U2,1*
G04 #@! TO.N,A15*
X114585750Y-95192850D03*
D13*
G04 #@! TO.P,U2,15*
G04 #@! TO.N,D3*
X147605750Y-79952850D03*
G04 #@! TO.P,U2,2*
G04 #@! TO.N,A12*
X117125750Y-95192850D03*
G04 #@! TO.P,U2,16*
G04 #@! TO.N,D4*
X145065750Y-79952850D03*
G04 #@! TO.P,U2,3*
G04 #@! TO.N,A7*
X119665750Y-95192850D03*
G04 #@! TO.P,U2,17*
G04 #@! TO.N,D5*
X142525750Y-79952850D03*
G04 #@! TO.P,U2,4*
G04 #@! TO.N,A6*
X122205750Y-95192850D03*
G04 #@! TO.P,U2,18*
G04 #@! TO.N,D6*
X139985750Y-79952850D03*
G04 #@! TO.P,U2,5*
G04 #@! TO.N,A5*
X124745750Y-95192850D03*
G04 #@! TO.P,U2,19*
G04 #@! TO.N,D7*
X137445750Y-79952850D03*
G04 #@! TO.P,U2,6*
G04 #@! TO.N,A4*
X127285750Y-95192850D03*
G04 #@! TO.P,U2,20*
G04 #@! TO.N,~CS*
X134905750Y-79952850D03*
G04 #@! TO.P,U2,7*
G04 #@! TO.N,A3*
X129825750Y-95192850D03*
G04 #@! TO.P,U2,21*
G04 #@! TO.N,A10*
X132365750Y-79952850D03*
G04 #@! TO.P,U2,8*
G04 #@! TO.N,A2*
X132365750Y-95192850D03*
G04 #@! TO.P,U2,22*
G04 #@! TO.N,GND*
X129825750Y-79952850D03*
G04 #@! TO.P,U2,9*
G04 #@! TO.N,A1*
X134905750Y-95192850D03*
G04 #@! TO.P,U2,23*
G04 #@! TO.N,A11*
X127285750Y-79952850D03*
G04 #@! TO.P,U2,10*
G04 #@! TO.N,A0*
X137445750Y-95192850D03*
G04 #@! TO.P,U2,24*
G04 #@! TO.N,A9*
X124745750Y-79952850D03*
G04 #@! TO.P,U2,11*
G04 #@! TO.N,D0*
X139985750Y-95192850D03*
G04 #@! TO.P,U2,25*
G04 #@! TO.N,A8*
X122205750Y-79952850D03*
G04 #@! TO.P,U2,12*
G04 #@! TO.N,D1*
X142525750Y-95192850D03*
G04 #@! TO.P,U2,26*
G04 #@! TO.N,A13*
X119665750Y-79952850D03*
G04 #@! TO.P,U2,13*
G04 #@! TO.N,D2*
X145065750Y-95192850D03*
G04 #@! TO.P,U2,27*
G04 #@! TO.N,A14*
X117125750Y-79952850D03*
G04 #@! TO.P,U2,14*
G04 #@! TO.N,GND*
X147605750Y-95192850D03*
G04 #@! TO.P,U2,28*
G04 #@! TO.N,5V*
X114585750Y-79952850D03*
G04 #@! TD*
D14*
G04 #@! TO.P,J1,1*
G04 #@! TO.N,5V*
X153162000Y-95250000D03*
G04 #@! TD*
D15*
G04 #@! TO.P,RN1,1*
G04 #@! TO.N,GND*
X150368000Y-95250000D03*
D16*
G04 #@! TO.P,RN1,2*
G04 #@! TO.N,A12*
X150368000Y-92710000D03*
G04 #@! TO.P,RN1,3*
G04 #@! TO.N,A13*
X150368000Y-90170000D03*
G04 #@! TO.P,RN1,4*
G04 #@! TO.N,A14*
X150368000Y-87630000D03*
G04 #@! TO.P,RN1,5*
G04 #@! TO.N,A15*
X150368000Y-85090000D03*
G04 #@! TD*
D17*
G04 #@! TO.N,5V*
X145034000Y-88392000D03*
G04 #@! TO.N,A13*
X128524000Y-91948000D03*
G04 #@! TO.N,A14*
X122428000Y-90932000D03*
G04 #@! TO.N,GND*
X141224000Y-87122000D03*
G04 #@! TD*
D18*
G04 #@! TO.N,~CS*
X129794000Y-83058000D02*
X129794000Y-83566000D01*
X133604000Y-81254600D02*
X134905750Y-79952850D01*
X133604000Y-84328000D02*
X133604000Y-81254600D01*
X133096000Y-84836000D02*
X133604000Y-84328000D01*
X131064000Y-84836000D02*
X133096000Y-84836000D01*
X129794000Y-83566000D02*
X131064000Y-84836000D01*
G04 #@! TO.N,5V*
X153162000Y-95250000D02*
X153162000Y-94742000D01*
X148336000Y-92964000D02*
X148336000Y-91694000D01*
X149352000Y-93980000D02*
X148336000Y-92964000D01*
X152400000Y-93980000D02*
X149352000Y-93980000D01*
X153162000Y-94742000D02*
X152400000Y-93980000D01*
X148336000Y-91694000D02*
X145034000Y-88392000D01*
G04 #@! TO.N,A13*
X119665750Y-79952850D02*
X119665750Y-80295750D01*
X121920000Y-85344000D02*
X120904000Y-84328000D01*
X121920000Y-85344000D02*
X128524000Y-91948000D01*
X120904000Y-81534000D02*
X120904000Y-84328000D01*
X119665750Y-80295750D02*
X120904000Y-81534000D01*
G04 #@! TO.N,A14*
X117125750Y-79952850D02*
X117125750Y-85629750D01*
X117125750Y-85629750D02*
X122428000Y-90932000D01*
D19*
G04 #@! TO.N,GND*
X150345140Y-95227140D02*
X150368000Y-95250000D01*
D20*
X147605750Y-95192850D02*
X147605750Y-98266250D01*
D21*
X147605750Y-98266250D02*
X147574000Y-98298000D01*
D20*
X147605750Y-95192850D02*
X147605750Y-93503750D01*
X147605750Y-93503750D02*
X141224000Y-87122000D01*
D21*
G04 #@! TO.N,A7*
X119665750Y-95192850D02*
X119665750Y-98266250D01*
X119665750Y-98266250D02*
X119634000Y-98298000D01*
G04 #@! TO.N,D3*
X147605750Y-79952850D02*
X147605750Y-83026250D01*
X147605750Y-83026250D02*
X147574000Y-83058000D01*
G04 #@! TO.N,A6*
X122205750Y-95192850D02*
X122205750Y-98266250D01*
X122205750Y-98266250D02*
X122174000Y-98298000D01*
G04 #@! TO.N,D4*
X145065750Y-79952850D02*
X145065750Y-83026250D01*
X145065750Y-83026250D02*
X145034000Y-83058000D01*
G04 #@! TO.N,A5*
X124745750Y-95192850D02*
X124745750Y-98266250D01*
X124745750Y-98266250D02*
X124714000Y-98298000D01*
G04 #@! TO.N,D5*
X142525750Y-79952850D02*
X142525750Y-83026250D01*
X142525750Y-83026250D02*
X142494000Y-83058000D01*
G04 #@! TO.N,A4*
X127285750Y-95192850D02*
X127285750Y-98266250D01*
X127285750Y-98266250D02*
X127254000Y-98298000D01*
G04 #@! TO.N,D6*
X139985750Y-79952850D02*
X139985750Y-83026250D01*
X139985750Y-83026250D02*
X139954000Y-83058000D01*
G04 #@! TO.N,A3*
X129825750Y-95192850D02*
X129825750Y-98266250D01*
X129825750Y-98266250D02*
X129794000Y-98298000D01*
G04 #@! TO.N,D7*
X137445750Y-79952850D02*
X137445750Y-83026250D01*
X137445750Y-83026250D02*
X137414000Y-83058000D01*
G04 #@! TO.N,A2*
X132365750Y-95192850D02*
X132365750Y-98266250D01*
X132365750Y-98266250D02*
X132334000Y-98298000D01*
D18*
G04 #@! TO.N,A11*
X127285750Y-79952850D02*
X127285750Y-80041750D01*
X134874000Y-84582000D02*
X134874000Y-83058000D01*
X133604000Y-85852000D02*
X134874000Y-84582000D01*
X129540000Y-85852000D02*
X133604000Y-85852000D01*
X128524000Y-84836000D02*
X129540000Y-85852000D01*
X128524000Y-81280000D02*
X128524000Y-84836000D01*
X127285750Y-80041750D02*
X128524000Y-81280000D01*
D21*
G04 #@! TO.N,A1*
X134905750Y-95192850D02*
X134905750Y-98266250D01*
X134905750Y-98266250D02*
X134874000Y-98298000D01*
G04 #@! TO.N,A10*
X132365750Y-79952850D02*
X132365750Y-83026250D01*
X132365750Y-83026250D02*
X132334000Y-83058000D01*
G04 #@! TO.N,A0*
X137445750Y-95192850D02*
X137445750Y-98266250D01*
X137445750Y-98266250D02*
X137414000Y-98298000D01*
G04 #@! TO.N,D0*
X139985750Y-95192850D02*
X139985750Y-98266250D01*
X139985750Y-98266250D02*
X139954000Y-98298000D01*
G04 #@! TO.N,D1*
X142525750Y-95192850D02*
X142525750Y-98266250D01*
X142525750Y-98266250D02*
X142494000Y-98298000D01*
G04 #@! TO.N,A9*
X124745750Y-79952850D02*
X124745750Y-83026250D01*
X124745750Y-83026250D02*
X124714000Y-83058000D01*
G04 #@! TO.N,D2*
X145065750Y-95192850D02*
X145065750Y-98266250D01*
X145065750Y-98266250D02*
X145034000Y-98298000D01*
G04 #@! TO.N,A8*
X122205750Y-79952850D02*
X122205750Y-83026250D01*
X122205750Y-83026250D02*
X122174000Y-83058000D01*
G04 #@! TD*
M02*
