M48
; DRILL file {KiCad 9.0.0} date 2025-08-10T20:52:19-0400
; FORMAT={-:-/ absolute / inch / decimal}
; #@! TF.CreationDate,2025-08-10T20:52:19-04:00
; #@! TF.GenerationSoftware,Kicad,Pcbnew,9.0.0
; #@! TF.FileFunction,Plated,1,2,PTH
FMAT,2
INCH
; #@! TA.AperFunction,Plated,PTH,ViaDrill
T1C0.0157
; #@! TA.AperFunction,Plated,PTH,ComponentDrill
T2C0.0315
; #@! TA.AperFunction,Plated,PTH,ComponentDrill
T3C0.0394
%
G90
G05
T1
X4.9756Y-3.4972
X5.002Y-3.3807
X5.062Y-3.8016
X5.3503Y-3.7857
T2
X4.504Y-3.29
X4.504Y-3.39
X4.504Y-3.49
X4.504Y-3.59
X4.5112Y-3.1477
X4.5112Y-3.7477
X4.6113Y-3.1477
X4.6113Y-3.7477
X4.7112Y-3.1477
X4.7112Y-3.7477
X4.804Y-3.29
X4.804Y-3.39
X4.804Y-3.49
X4.804Y-3.59
X4.8113Y-3.1477
X4.8113Y-3.7477
X4.9112Y-3.1477
X4.9112Y-3.7477
X4.912Y-3.254
X4.912Y-3.354
X4.912Y-3.454
X4.912Y-3.554
X4.912Y-3.654
X5.0112Y-3.1477
X5.0112Y-3.7477
X5.062Y-3.298
X5.062Y-3.398
X5.062Y-3.498
X5.062Y-3.598
X5.1113Y-3.1477
X5.1113Y-3.7477
X5.162Y-3.198
X5.162Y-3.298
X5.162Y-3.398
X5.162Y-3.498
X5.162Y-3.598
X5.162Y-3.698
X5.2112Y-3.1477
X5.2112Y-3.7477
X5.262Y-3.198
X5.262Y-3.298
X5.262Y-3.598
X5.262Y-3.698
X5.3113Y-3.1477
X5.3113Y-3.7477
X5.362Y-3.198
X5.362Y-3.298
X5.362Y-3.598
X5.362Y-3.698
X5.4112Y-3.1477
X5.4112Y-3.7477
X5.462Y-3.198
X5.462Y-3.298
X5.462Y-3.598
X5.462Y-3.698
X5.5112Y-3.1477
X5.5112Y-3.7477
X5.562Y-3.198
X5.562Y-3.598
X5.562Y-3.298
X5.562Y-3.398
X5.562Y-3.498
X5.562Y-3.698
X5.6113Y-3.1477
X5.6113Y-3.7477
X5.662Y-3.298
X5.662Y-3.398
X5.662Y-3.498
X5.662Y-3.598
T3
X4.702Y-3.29
X4.702Y-3.39
X4.702Y-3.49
X4.702Y-3.59
M30
