G04 #@! TF.GenerationSoftware,KiCad,Pcbnew,9.0.0*
G04 #@! TF.CreationDate,2025-08-10T20:52:22-04:00*
G04 #@! TF.ProjectId,CBM-2332-MultiROM,43424d2d-3233-4333-922d-4d756c746952,rev?*
G04 #@! TF.SameCoordinates,Original*
G04 #@! TF.FileFunction,Legend,Top*
G04 #@! TF.FilePolarity,Positive*
%FSLAX46Y46*%
G04 Gerber Fmt 4.6, Leading zero omitted, Abs format (unit mm)*
G04 Created by KiCad (PCBNEW 9.0.0) date 2025-08-10 20:52:22*
%MOMM*%
%LPD*%
G01*
G04 APERTURE LIST*
%ADD10C,0.200000*%
%ADD11C,0.150000*%
%ADD12C,0.120000*%
G04 APERTURE END LIST*
D10*
X145007028Y-96289999D02*
X144949885Y-96237618D01*
X144949885Y-96237618D02*
X144892742Y-96132856D01*
X144892742Y-96132856D02*
X144892742Y-95870951D01*
X144892742Y-95870951D02*
X144949885Y-95766189D01*
X144949885Y-95766189D02*
X145007028Y-95713808D01*
X145007028Y-95713808D02*
X145121314Y-95661427D01*
X145121314Y-95661427D02*
X145235600Y-95661427D01*
X145235600Y-95661427D02*
X145407028Y-95713808D01*
X145407028Y-95713808D02*
X146092742Y-96342380D01*
X146092742Y-96342380D02*
X146092742Y-95661427D01*
X144892742Y-95294761D02*
X144892742Y-94613808D01*
X144892742Y-94613808D02*
X145349885Y-94980475D01*
X145349885Y-94980475D02*
X145349885Y-94823332D01*
X145349885Y-94823332D02*
X145407028Y-94718570D01*
X145407028Y-94718570D02*
X145464171Y-94666189D01*
X145464171Y-94666189D02*
X145578457Y-94613808D01*
X145578457Y-94613808D02*
X145864171Y-94613808D01*
X145864171Y-94613808D02*
X145978457Y-94666189D01*
X145978457Y-94666189D02*
X146035600Y-94718570D01*
X146035600Y-94718570D02*
X146092742Y-94823332D01*
X146092742Y-94823332D02*
X146092742Y-95137618D01*
X146092742Y-95137618D02*
X146035600Y-95242380D01*
X146035600Y-95242380D02*
X145978457Y-95294761D01*
X144892742Y-94247142D02*
X144892742Y-93566189D01*
X144892742Y-93566189D02*
X145349885Y-93932856D01*
X145349885Y-93932856D02*
X145349885Y-93775713D01*
X145349885Y-93775713D02*
X145407028Y-93670951D01*
X145407028Y-93670951D02*
X145464171Y-93618570D01*
X145464171Y-93618570D02*
X145578457Y-93566189D01*
X145578457Y-93566189D02*
X145864171Y-93566189D01*
X145864171Y-93566189D02*
X145978457Y-93618570D01*
X145978457Y-93618570D02*
X146035600Y-93670951D01*
X146035600Y-93670951D02*
X146092742Y-93775713D01*
X146092742Y-93775713D02*
X146092742Y-94089999D01*
X146092742Y-94089999D02*
X146035600Y-94194761D01*
X146035600Y-94194761D02*
X145978457Y-94247142D01*
X145007028Y-93147142D02*
X144949885Y-93094761D01*
X144949885Y-93094761D02*
X144892742Y-92989999D01*
X144892742Y-92989999D02*
X144892742Y-92728094D01*
X144892742Y-92728094D02*
X144949885Y-92623332D01*
X144949885Y-92623332D02*
X145007028Y-92570951D01*
X145007028Y-92570951D02*
X145121314Y-92518570D01*
X145121314Y-92518570D02*
X145235600Y-92518570D01*
X145235600Y-92518570D02*
X145407028Y-92570951D01*
X145407028Y-92570951D02*
X146092742Y-93199523D01*
X146092742Y-93199523D02*
X146092742Y-92518570D01*
X146092742Y-91209047D02*
X144892742Y-91209047D01*
X144892742Y-91209047D02*
X145749885Y-90842380D01*
X145749885Y-90842380D02*
X144892742Y-90475713D01*
X144892742Y-90475713D02*
X146092742Y-90475713D01*
X145292742Y-89480475D02*
X146092742Y-89480475D01*
X145292742Y-89951904D02*
X145921314Y-89951904D01*
X145921314Y-89951904D02*
X146035600Y-89899523D01*
X146035600Y-89899523D02*
X146092742Y-89794761D01*
X146092742Y-89794761D02*
X146092742Y-89637618D01*
X146092742Y-89637618D02*
X146035600Y-89532856D01*
X146035600Y-89532856D02*
X145978457Y-89480475D01*
X146092742Y-88799523D02*
X146035600Y-88904285D01*
X146035600Y-88904285D02*
X145921314Y-88956666D01*
X145921314Y-88956666D02*
X144892742Y-88956666D01*
X145292742Y-88537619D02*
X145292742Y-88118571D01*
X144892742Y-88380476D02*
X145921314Y-88380476D01*
X145921314Y-88380476D02*
X146035600Y-88328095D01*
X146035600Y-88328095D02*
X146092742Y-88223333D01*
X146092742Y-88223333D02*
X146092742Y-88118571D01*
X146092742Y-87751905D02*
X145292742Y-87751905D01*
X144892742Y-87751905D02*
X144949885Y-87804286D01*
X144949885Y-87804286D02*
X145007028Y-87751905D01*
X145007028Y-87751905D02*
X144949885Y-87699524D01*
X144949885Y-87699524D02*
X144892742Y-87751905D01*
X144892742Y-87751905D02*
X145007028Y-87751905D01*
X146092742Y-86599523D02*
X145521314Y-86966190D01*
X146092742Y-87228095D02*
X144892742Y-87228095D01*
X144892742Y-87228095D02*
X144892742Y-86809047D01*
X144892742Y-86809047D02*
X144949885Y-86704285D01*
X144949885Y-86704285D02*
X145007028Y-86651904D01*
X145007028Y-86651904D02*
X145121314Y-86599523D01*
X145121314Y-86599523D02*
X145292742Y-86599523D01*
X145292742Y-86599523D02*
X145407028Y-86651904D01*
X145407028Y-86651904D02*
X145464171Y-86704285D01*
X145464171Y-86704285D02*
X145521314Y-86809047D01*
X145521314Y-86809047D02*
X145521314Y-87228095D01*
X144892742Y-85918571D02*
X144892742Y-85709047D01*
X144892742Y-85709047D02*
X144949885Y-85604285D01*
X144949885Y-85604285D02*
X145064171Y-85499523D01*
X145064171Y-85499523D02*
X145292742Y-85447142D01*
X145292742Y-85447142D02*
X145692742Y-85447142D01*
X145692742Y-85447142D02*
X145921314Y-85499523D01*
X145921314Y-85499523D02*
X146035600Y-85604285D01*
X146035600Y-85604285D02*
X146092742Y-85709047D01*
X146092742Y-85709047D02*
X146092742Y-85918571D01*
X146092742Y-85918571D02*
X146035600Y-86023333D01*
X146035600Y-86023333D02*
X145921314Y-86128095D01*
X145921314Y-86128095D02*
X145692742Y-86180476D01*
X145692742Y-86180476D02*
X145292742Y-86180476D01*
X145292742Y-86180476D02*
X145064171Y-86128095D01*
X145064171Y-86128095D02*
X144949885Y-86023333D01*
X144949885Y-86023333D02*
X144892742Y-85918571D01*
X146092742Y-84975714D02*
X144892742Y-84975714D01*
X144892742Y-84975714D02*
X145749885Y-84609047D01*
X145749885Y-84609047D02*
X144892742Y-84242380D01*
X144892742Y-84242380D02*
X146092742Y-84242380D01*
D11*
X144196340Y-80724312D02*
X144196340Y-80267169D01*
X144996340Y-80495741D02*
X144196340Y-80495741D01*
X144196340Y-79848121D02*
X144196340Y-79695740D01*
X144196340Y-79695740D02*
X144234435Y-79619550D01*
X144234435Y-79619550D02*
X144310625Y-79543359D01*
X144310625Y-79543359D02*
X144463006Y-79505264D01*
X144463006Y-79505264D02*
X144729673Y-79505264D01*
X144729673Y-79505264D02*
X144882054Y-79543359D01*
X144882054Y-79543359D02*
X144958245Y-79619550D01*
X144958245Y-79619550D02*
X144996340Y-79695740D01*
X144996340Y-79695740D02*
X144996340Y-79848121D01*
X144996340Y-79848121D02*
X144958245Y-79924312D01*
X144958245Y-79924312D02*
X144882054Y-80000502D01*
X144882054Y-80000502D02*
X144729673Y-80038598D01*
X144729673Y-80038598D02*
X144463006Y-80038598D01*
X144463006Y-80038598D02*
X144310625Y-80000502D01*
X144310625Y-80000502D02*
X144234435Y-79924312D01*
X144234435Y-79924312D02*
X144196340Y-79848121D01*
X144996340Y-79162407D02*
X144196340Y-79162407D01*
X144196340Y-79162407D02*
X144196340Y-78857645D01*
X144196340Y-78857645D02*
X144234435Y-78781455D01*
X144234435Y-78781455D02*
X144272530Y-78743360D01*
X144272530Y-78743360D02*
X144348721Y-78705264D01*
X144348721Y-78705264D02*
X144463006Y-78705264D01*
X144463006Y-78705264D02*
X144539197Y-78743360D01*
X144539197Y-78743360D02*
X144577292Y-78781455D01*
X144577292Y-78781455D02*
X144615387Y-78857645D01*
X144615387Y-78857645D02*
X144615387Y-79162407D01*
X146246200Y-81448122D02*
X146284295Y-81333836D01*
X146284295Y-81333836D02*
X146284295Y-81143360D01*
X146284295Y-81143360D02*
X146246200Y-81067169D01*
X146246200Y-81067169D02*
X146208104Y-81029074D01*
X146208104Y-81029074D02*
X146131914Y-80990979D01*
X146131914Y-80990979D02*
X146055723Y-80990979D01*
X146055723Y-80990979D02*
X145979533Y-81029074D01*
X145979533Y-81029074D02*
X145941438Y-81067169D01*
X145941438Y-81067169D02*
X145903342Y-81143360D01*
X145903342Y-81143360D02*
X145865247Y-81295741D01*
X145865247Y-81295741D02*
X145827152Y-81371931D01*
X145827152Y-81371931D02*
X145789057Y-81410026D01*
X145789057Y-81410026D02*
X145712866Y-81448122D01*
X145712866Y-81448122D02*
X145636676Y-81448122D01*
X145636676Y-81448122D02*
X145560485Y-81410026D01*
X145560485Y-81410026D02*
X145522390Y-81371931D01*
X145522390Y-81371931D02*
X145484295Y-81295741D01*
X145484295Y-81295741D02*
X145484295Y-81105264D01*
X145484295Y-81105264D02*
X145522390Y-80990979D01*
X146284295Y-80648121D02*
X145484295Y-80648121D01*
X146284295Y-80267169D02*
X145484295Y-80267169D01*
X145484295Y-80267169D02*
X145484295Y-80076693D01*
X145484295Y-80076693D02*
X145522390Y-79962407D01*
X145522390Y-79962407D02*
X145598580Y-79886217D01*
X145598580Y-79886217D02*
X145674771Y-79848122D01*
X145674771Y-79848122D02*
X145827152Y-79810026D01*
X145827152Y-79810026D02*
X145941438Y-79810026D01*
X145941438Y-79810026D02*
X146093819Y-79848122D01*
X146093819Y-79848122D02*
X146170009Y-79886217D01*
X146170009Y-79886217D02*
X146246200Y-79962407D01*
X146246200Y-79962407D02*
X146284295Y-80076693D01*
X146284295Y-80076693D02*
X146284295Y-80267169D01*
X145865247Y-79467169D02*
X145865247Y-79200503D01*
X146284295Y-79086217D02*
X146284295Y-79467169D01*
X146284295Y-79467169D02*
X145484295Y-79467169D01*
X145484295Y-79467169D02*
X145484295Y-79086217D01*
X146208104Y-78743359D02*
X146246200Y-78705264D01*
X146246200Y-78705264D02*
X146284295Y-78743359D01*
X146284295Y-78743359D02*
X146246200Y-78781455D01*
X146246200Y-78781455D02*
X146208104Y-78743359D01*
X146208104Y-78743359D02*
X146284295Y-78743359D01*
X145979533Y-78743359D02*
X145522390Y-78781455D01*
X145522390Y-78781455D02*
X145484295Y-78743359D01*
X145484295Y-78743359D02*
X145522390Y-78705264D01*
X145522390Y-78705264D02*
X145979533Y-78743359D01*
X145979533Y-78743359D02*
X145484295Y-78743359D01*
X134156741Y-85672385D02*
X134347217Y-86472385D01*
X134347217Y-86472385D02*
X134499598Y-85900956D01*
X134499598Y-85900956D02*
X134651979Y-86472385D01*
X134651979Y-86472385D02*
X134842456Y-85672385D01*
X135147218Y-86472385D02*
X135147218Y-85939051D01*
X135147218Y-85672385D02*
X135109122Y-85710480D01*
X135109122Y-85710480D02*
X135147218Y-85748575D01*
X135147218Y-85748575D02*
X135185313Y-85710480D01*
X135185313Y-85710480D02*
X135147218Y-85672385D01*
X135147218Y-85672385D02*
X135147218Y-85748575D01*
X135528170Y-85939051D02*
X135528170Y-86472385D01*
X135528170Y-86015242D02*
X135566265Y-85977147D01*
X135566265Y-85977147D02*
X135642455Y-85939051D01*
X135642455Y-85939051D02*
X135756741Y-85939051D01*
X135756741Y-85939051D02*
X135832932Y-85977147D01*
X135832932Y-85977147D02*
X135871027Y-86053337D01*
X135871027Y-86053337D02*
X135871027Y-86472385D01*
X136251980Y-86472385D02*
X136251980Y-85672385D01*
X136251980Y-85977147D02*
X136328170Y-85939051D01*
X136328170Y-85939051D02*
X136480551Y-85939051D01*
X136480551Y-85939051D02*
X136556742Y-85977147D01*
X136556742Y-85977147D02*
X136594837Y-86015242D01*
X136594837Y-86015242D02*
X136632932Y-86091432D01*
X136632932Y-86091432D02*
X136632932Y-86320004D01*
X136632932Y-86320004D02*
X136594837Y-86396194D01*
X136594837Y-86396194D02*
X136556742Y-86434290D01*
X136556742Y-86434290D02*
X136480551Y-86472385D01*
X136480551Y-86472385D02*
X136328170Y-86472385D01*
X136328170Y-86472385D02*
X136251980Y-86434290D01*
X137090075Y-86472385D02*
X137013885Y-86434290D01*
X137013885Y-86434290D02*
X136975790Y-86396194D01*
X136975790Y-86396194D02*
X136937694Y-86320004D01*
X136937694Y-86320004D02*
X136937694Y-86091432D01*
X136937694Y-86091432D02*
X136975790Y-86015242D01*
X136975790Y-86015242D02*
X137013885Y-85977147D01*
X137013885Y-85977147D02*
X137090075Y-85939051D01*
X137090075Y-85939051D02*
X137204361Y-85939051D01*
X137204361Y-85939051D02*
X137280552Y-85977147D01*
X137280552Y-85977147D02*
X137318647Y-86015242D01*
X137318647Y-86015242D02*
X137356742Y-86091432D01*
X137356742Y-86091432D02*
X137356742Y-86320004D01*
X137356742Y-86320004D02*
X137318647Y-86396194D01*
X137318647Y-86396194D02*
X137280552Y-86434290D01*
X137280552Y-86434290D02*
X137204361Y-86472385D01*
X137204361Y-86472385D02*
X137090075Y-86472385D01*
X137699600Y-85939051D02*
X137699600Y-86472385D01*
X137699600Y-86015242D02*
X137737695Y-85977147D01*
X137737695Y-85977147D02*
X137813885Y-85939051D01*
X137813885Y-85939051D02*
X137928171Y-85939051D01*
X137928171Y-85939051D02*
X138004362Y-85977147D01*
X138004362Y-85977147D02*
X138042457Y-86053337D01*
X138042457Y-86053337D02*
X138042457Y-86472385D01*
X138766267Y-86472385D02*
X138766267Y-85672385D01*
X138766267Y-86434290D02*
X138690076Y-86472385D01*
X138690076Y-86472385D02*
X138537695Y-86472385D01*
X138537695Y-86472385D02*
X138461505Y-86434290D01*
X138461505Y-86434290D02*
X138423410Y-86396194D01*
X138423410Y-86396194D02*
X138385314Y-86320004D01*
X138385314Y-86320004D02*
X138385314Y-86091432D01*
X138385314Y-86091432D02*
X138423410Y-86015242D01*
X138423410Y-86015242D02*
X138461505Y-85977147D01*
X138461505Y-85977147D02*
X138537695Y-85939051D01*
X138537695Y-85939051D02*
X138690076Y-85939051D01*
X138690076Y-85939051D02*
X138766267Y-85977147D01*
X133851980Y-86960340D02*
X134042456Y-87760340D01*
X134042456Y-87760340D02*
X134194837Y-87188911D01*
X134194837Y-87188911D02*
X134347218Y-87760340D01*
X134347218Y-87760340D02*
X134537695Y-86960340D01*
X134804361Y-87036530D02*
X134842457Y-86998435D01*
X134842457Y-86998435D02*
X134918647Y-86960340D01*
X134918647Y-86960340D02*
X135109123Y-86960340D01*
X135109123Y-86960340D02*
X135185314Y-86998435D01*
X135185314Y-86998435D02*
X135223409Y-87036530D01*
X135223409Y-87036530D02*
X135261504Y-87112721D01*
X135261504Y-87112721D02*
X135261504Y-87188911D01*
X135261504Y-87188911D02*
X135223409Y-87303197D01*
X135223409Y-87303197D02*
X134766266Y-87760340D01*
X134766266Y-87760340D02*
X135261504Y-87760340D01*
X135528171Y-86960340D02*
X136061505Y-86960340D01*
X136061505Y-86960340D02*
X135718647Y-87760340D01*
X136823410Y-87684149D02*
X136785314Y-87722245D01*
X136785314Y-87722245D02*
X136671029Y-87760340D01*
X136671029Y-87760340D02*
X136594838Y-87760340D01*
X136594838Y-87760340D02*
X136480552Y-87722245D01*
X136480552Y-87722245D02*
X136404362Y-87646054D01*
X136404362Y-87646054D02*
X136366267Y-87569864D01*
X136366267Y-87569864D02*
X136328171Y-87417483D01*
X136328171Y-87417483D02*
X136328171Y-87303197D01*
X136328171Y-87303197D02*
X136366267Y-87150816D01*
X136366267Y-87150816D02*
X136404362Y-87074625D01*
X136404362Y-87074625D02*
X136480552Y-86998435D01*
X136480552Y-86998435D02*
X136594838Y-86960340D01*
X136594838Y-86960340D02*
X136671029Y-86960340D01*
X136671029Y-86960340D02*
X136785314Y-86998435D01*
X136785314Y-86998435D02*
X136823410Y-87036530D01*
X137318648Y-86960340D02*
X137394838Y-86960340D01*
X137394838Y-86960340D02*
X137471029Y-86998435D01*
X137471029Y-86998435D02*
X137509124Y-87036530D01*
X137509124Y-87036530D02*
X137547219Y-87112721D01*
X137547219Y-87112721D02*
X137585314Y-87265102D01*
X137585314Y-87265102D02*
X137585314Y-87455578D01*
X137585314Y-87455578D02*
X137547219Y-87607959D01*
X137547219Y-87607959D02*
X137509124Y-87684149D01*
X137509124Y-87684149D02*
X137471029Y-87722245D01*
X137471029Y-87722245D02*
X137394838Y-87760340D01*
X137394838Y-87760340D02*
X137318648Y-87760340D01*
X137318648Y-87760340D02*
X137242457Y-87722245D01*
X137242457Y-87722245D02*
X137204362Y-87684149D01*
X137204362Y-87684149D02*
X137166267Y-87607959D01*
X137166267Y-87607959D02*
X137128171Y-87455578D01*
X137128171Y-87455578D02*
X137128171Y-87265102D01*
X137128171Y-87265102D02*
X137166267Y-87112721D01*
X137166267Y-87112721D02*
X137204362Y-87036530D01*
X137204362Y-87036530D02*
X137242457Y-86998435D01*
X137242457Y-86998435D02*
X137318648Y-86960340D01*
X138347219Y-87760340D02*
X137890076Y-87760340D01*
X138118648Y-87760340D02*
X138118648Y-86960340D01*
X138118648Y-86960340D02*
X138042457Y-87074625D01*
X138042457Y-87074625D02*
X137966267Y-87150816D01*
X137966267Y-87150816D02*
X137890076Y-87188911D01*
X138842458Y-86960340D02*
X138918648Y-86960340D01*
X138918648Y-86960340D02*
X138994839Y-86998435D01*
X138994839Y-86998435D02*
X139032934Y-87036530D01*
X139032934Y-87036530D02*
X139071029Y-87112721D01*
X139071029Y-87112721D02*
X139109124Y-87265102D01*
X139109124Y-87265102D02*
X139109124Y-87455578D01*
X139109124Y-87455578D02*
X139071029Y-87607959D01*
X139071029Y-87607959D02*
X139032934Y-87684149D01*
X139032934Y-87684149D02*
X138994839Y-87722245D01*
X138994839Y-87722245D02*
X138918648Y-87760340D01*
X138918648Y-87760340D02*
X138842458Y-87760340D01*
X138842458Y-87760340D02*
X138766267Y-87722245D01*
X138766267Y-87722245D02*
X138728172Y-87684149D01*
X138728172Y-87684149D02*
X138690077Y-87607959D01*
X138690077Y-87607959D02*
X138651981Y-87455578D01*
X138651981Y-87455578D02*
X138651981Y-87265102D01*
X138651981Y-87265102D02*
X138690077Y-87112721D01*
X138690077Y-87112721D02*
X138728172Y-87036530D01*
X138728172Y-87036530D02*
X138766267Y-86998435D01*
X138766267Y-86998435D02*
X138842458Y-86960340D01*
X133851980Y-88248295D02*
X134042456Y-89048295D01*
X134042456Y-89048295D02*
X134194837Y-88476866D01*
X134194837Y-88476866D02*
X134347218Y-89048295D01*
X134347218Y-89048295D02*
X134537695Y-88248295D01*
X134804361Y-88324485D02*
X134842457Y-88286390D01*
X134842457Y-88286390D02*
X134918647Y-88248295D01*
X134918647Y-88248295D02*
X135109123Y-88248295D01*
X135109123Y-88248295D02*
X135185314Y-88286390D01*
X135185314Y-88286390D02*
X135223409Y-88324485D01*
X135223409Y-88324485D02*
X135261504Y-88400676D01*
X135261504Y-88400676D02*
X135261504Y-88476866D01*
X135261504Y-88476866D02*
X135223409Y-88591152D01*
X135223409Y-88591152D02*
X134766266Y-89048295D01*
X134766266Y-89048295D02*
X135261504Y-89048295D01*
X135528171Y-88248295D02*
X136061505Y-88248295D01*
X136061505Y-88248295D02*
X135718647Y-89048295D01*
X136823410Y-88972104D02*
X136785314Y-89010200D01*
X136785314Y-89010200D02*
X136671029Y-89048295D01*
X136671029Y-89048295D02*
X136594838Y-89048295D01*
X136594838Y-89048295D02*
X136480552Y-89010200D01*
X136480552Y-89010200D02*
X136404362Y-88934009D01*
X136404362Y-88934009D02*
X136366267Y-88857819D01*
X136366267Y-88857819D02*
X136328171Y-88705438D01*
X136328171Y-88705438D02*
X136328171Y-88591152D01*
X136328171Y-88591152D02*
X136366267Y-88438771D01*
X136366267Y-88438771D02*
X136404362Y-88362580D01*
X136404362Y-88362580D02*
X136480552Y-88286390D01*
X136480552Y-88286390D02*
X136594838Y-88248295D01*
X136594838Y-88248295D02*
X136671029Y-88248295D01*
X136671029Y-88248295D02*
X136785314Y-88286390D01*
X136785314Y-88286390D02*
X136823410Y-88324485D01*
X137318648Y-88248295D02*
X137394838Y-88248295D01*
X137394838Y-88248295D02*
X137471029Y-88286390D01*
X137471029Y-88286390D02*
X137509124Y-88324485D01*
X137509124Y-88324485D02*
X137547219Y-88400676D01*
X137547219Y-88400676D02*
X137585314Y-88553057D01*
X137585314Y-88553057D02*
X137585314Y-88743533D01*
X137585314Y-88743533D02*
X137547219Y-88895914D01*
X137547219Y-88895914D02*
X137509124Y-88972104D01*
X137509124Y-88972104D02*
X137471029Y-89010200D01*
X137471029Y-89010200D02*
X137394838Y-89048295D01*
X137394838Y-89048295D02*
X137318648Y-89048295D01*
X137318648Y-89048295D02*
X137242457Y-89010200D01*
X137242457Y-89010200D02*
X137204362Y-88972104D01*
X137204362Y-88972104D02*
X137166267Y-88895914D01*
X137166267Y-88895914D02*
X137128171Y-88743533D01*
X137128171Y-88743533D02*
X137128171Y-88553057D01*
X137128171Y-88553057D02*
X137166267Y-88400676D01*
X137166267Y-88400676D02*
X137204362Y-88324485D01*
X137204362Y-88324485D02*
X137242457Y-88286390D01*
X137242457Y-88286390D02*
X137318648Y-88248295D01*
X137890076Y-88324485D02*
X137928172Y-88286390D01*
X137928172Y-88286390D02*
X138004362Y-88248295D01*
X138004362Y-88248295D02*
X138194838Y-88248295D01*
X138194838Y-88248295D02*
X138271029Y-88286390D01*
X138271029Y-88286390D02*
X138309124Y-88324485D01*
X138309124Y-88324485D02*
X138347219Y-88400676D01*
X138347219Y-88400676D02*
X138347219Y-88476866D01*
X138347219Y-88476866D02*
X138309124Y-88591152D01*
X138309124Y-88591152D02*
X137851981Y-89048295D01*
X137851981Y-89048295D02*
X138347219Y-89048295D01*
X138842458Y-88248295D02*
X138918648Y-88248295D01*
X138918648Y-88248295D02*
X138994839Y-88286390D01*
X138994839Y-88286390D02*
X139032934Y-88324485D01*
X139032934Y-88324485D02*
X139071029Y-88400676D01*
X139071029Y-88400676D02*
X139109124Y-88553057D01*
X139109124Y-88553057D02*
X139109124Y-88743533D01*
X139109124Y-88743533D02*
X139071029Y-88895914D01*
X139071029Y-88895914D02*
X139032934Y-88972104D01*
X139032934Y-88972104D02*
X138994839Y-89010200D01*
X138994839Y-89010200D02*
X138918648Y-89048295D01*
X138918648Y-89048295D02*
X138842458Y-89048295D01*
X138842458Y-89048295D02*
X138766267Y-89010200D01*
X138766267Y-89010200D02*
X138728172Y-88972104D01*
X138728172Y-88972104D02*
X138690077Y-88895914D01*
X138690077Y-88895914D02*
X138651981Y-88743533D01*
X138651981Y-88743533D02*
X138651981Y-88553057D01*
X138651981Y-88553057D02*
X138690077Y-88400676D01*
X138690077Y-88400676D02*
X138728172Y-88324485D01*
X138728172Y-88324485D02*
X138766267Y-88286390D01*
X138766267Y-88286390D02*
X138842458Y-88248295D01*
D12*
X146594801Y-96704200D02*
X146594801Y-78454200D01*
X146594801Y-78454200D02*
X125794801Y-78454200D01*
X126794801Y-96704200D02*
X146594801Y-96704200D01*
X125794801Y-95704200D02*
X126794801Y-96704200D01*
X125794801Y-88579199D02*
X125794801Y-95704200D01*
X125794801Y-78454200D02*
X125794801Y-86579200D01*
X114561600Y-81216000D02*
X114561600Y-82526000D01*
X114561600Y-81216000D02*
X115944600Y-81216000D01*
X114801600Y-81456000D02*
X114801600Y-82526000D01*
X114801600Y-81456000D02*
X121621600Y-81456000D01*
X114801600Y-84606000D02*
X114801600Y-85146000D01*
X114801600Y-87066000D02*
X114801600Y-87686000D01*
X114801600Y-89606000D02*
X114801600Y-90226000D01*
X114801600Y-92146000D02*
X114801600Y-93296000D01*
X114801600Y-93296000D02*
X121621600Y-93296000D01*
X117608267Y-82931000D02*
X117608267Y-84201000D01*
X117608267Y-85471000D02*
X117608267Y-86741000D01*
X117608267Y-88011000D02*
X117608267Y-89281000D01*
X117608267Y-90551000D02*
X117608267Y-91821000D01*
X121621600Y-81456000D02*
X121621600Y-82606000D01*
X121621600Y-84526000D02*
X121621600Y-85146000D01*
X121621600Y-87066000D02*
X121621600Y-87686000D01*
X121621600Y-89606000D02*
X121621600Y-90226000D01*
X121621600Y-92146000D02*
X121621600Y-93296000D01*
X116401600Y-82931000D02*
X117608267Y-82931000D01*
X117608267Y-84201000D01*
X116401600Y-84201000D01*
X116401600Y-82931000D01*
G36*
X116401600Y-82931000D02*
G01*
X117608267Y-82931000D01*
X117608267Y-84201000D01*
X116401600Y-84201000D01*
X116401600Y-82931000D01*
G37*
X116401600Y-82931000D02*
X120021600Y-82931000D01*
X120021600Y-84201000D01*
X116401600Y-84201000D01*
X116401600Y-82931000D01*
X116401600Y-85471000D02*
X117608267Y-85471000D01*
X117608267Y-86741000D01*
X116401600Y-86741000D01*
X116401600Y-85471000D01*
G36*
X116401600Y-85471000D02*
G01*
X117608267Y-85471000D01*
X117608267Y-86741000D01*
X116401600Y-86741000D01*
X116401600Y-85471000D01*
G37*
X116401600Y-85471000D02*
X120021600Y-85471000D01*
X120021600Y-86741000D01*
X116401600Y-86741000D01*
X116401600Y-85471000D01*
X116401600Y-88011000D02*
X117608267Y-88011000D01*
X117608267Y-89281000D01*
X116401600Y-89281000D01*
X116401600Y-88011000D01*
G36*
X116401600Y-88011000D02*
G01*
X117608267Y-88011000D01*
X117608267Y-89281000D01*
X116401600Y-89281000D01*
X116401600Y-88011000D01*
G37*
X116401600Y-88011000D02*
X120021600Y-88011000D01*
X120021600Y-89281000D01*
X116401600Y-89281000D01*
X116401600Y-88011000D01*
X116401600Y-90551000D02*
X117608267Y-90551000D01*
X117608267Y-91821000D01*
X116401600Y-91821000D01*
X116401600Y-90551000D01*
G36*
X116401600Y-90551000D02*
G01*
X117608267Y-90551000D01*
X117608267Y-91821000D01*
X116401600Y-91821000D01*
X116401600Y-90551000D01*
G37*
X116401600Y-90551000D02*
X120021600Y-90551000D01*
X120021600Y-91821000D01*
X116401600Y-91821000D01*
X116401600Y-90551000D01*
X113255750Y-81112850D02*
X113255750Y-86572850D01*
X113255750Y-88572850D02*
X113255750Y-94032850D01*
X113255750Y-94032850D02*
X143855750Y-94032850D01*
X143855750Y-81112850D02*
X113255750Y-81112850D01*
X143855750Y-94032850D02*
X143855750Y-81112850D01*
X113195750Y-96522850D02*
X143915750Y-96522850D01*
X143915750Y-78622850D01*
X113195750Y-78622850D01*
X113195750Y-96522850D01*
X113255750Y-86572850D02*
G75*
G02*
X113255750Y-88572850I0J-1000000D01*
G01*
X123364800Y-81211600D02*
X123364800Y-94251600D01*
X123364800Y-94251600D02*
X126164800Y-94251600D01*
X126164800Y-81211600D02*
X123364800Y-81211600D01*
X126164800Y-83921600D02*
X123364800Y-83921600D01*
X126164800Y-94251600D02*
X126164800Y-81211600D01*
X118100800Y-82236000D02*
X119430800Y-82236000D01*
X118100800Y-83566000D02*
X118100800Y-82236000D01*
X118100800Y-84836000D02*
X118100800Y-92516000D01*
X118100800Y-84836000D02*
X120760800Y-84836000D01*
X118100800Y-92516000D02*
X120760800Y-92516000D01*
X120760800Y-84836000D02*
X120760800Y-92516000D01*
M02*
