G04 #@! TF.GenerationSoftware,KiCad,Pcbnew,9.0.0*
G04 #@! TF.CreationDate,2025-08-10T20:52:22-04:00*
G04 #@! TF.ProjectId,CBM-2332-MultiROM,43424d2d-3233-4333-922d-4d756c746952,rev?*
G04 #@! TF.SameCoordinates,Original*
G04 #@! TF.FileFunction,Legend,Bot*
G04 #@! TF.FilePolarity,Positive*
%FSLAX46Y46*%
G04 Gerber Fmt 4.6, Leading zero omitted, Abs format (unit mm)*
G04 Created by KiCad (PCBNEW 9.0.0) date 2025-08-10 20:52:22*
%MOMM*%
%LPD*%
G01*
G04 APERTURE LIST*
%ADD10C,0.200000*%
%ADD11C,0.150000*%
G04 APERTURE END LIST*
D10*
X132910000Y-87886333D02*
X133081429Y-87829190D01*
X133081429Y-87829190D02*
X133367143Y-87829190D01*
X133367143Y-87829190D02*
X133481429Y-87886333D01*
X133481429Y-87886333D02*
X133538571Y-87943475D01*
X133538571Y-87943475D02*
X133595714Y-88057761D01*
X133595714Y-88057761D02*
X133595714Y-88172047D01*
X133595714Y-88172047D02*
X133538571Y-88286333D01*
X133538571Y-88286333D02*
X133481429Y-88343475D01*
X133481429Y-88343475D02*
X133367143Y-88400618D01*
X133367143Y-88400618D02*
X133138571Y-88457761D01*
X133138571Y-88457761D02*
X133024286Y-88514904D01*
X133024286Y-88514904D02*
X132967143Y-88572047D01*
X132967143Y-88572047D02*
X132910000Y-88686333D01*
X132910000Y-88686333D02*
X132910000Y-88800618D01*
X132910000Y-88800618D02*
X132967143Y-88914904D01*
X132967143Y-88914904D02*
X133024286Y-88972047D01*
X133024286Y-88972047D02*
X133138571Y-89029190D01*
X133138571Y-89029190D02*
X133424286Y-89029190D01*
X133424286Y-89029190D02*
X133595714Y-88972047D01*
X134338571Y-89029190D02*
X134567143Y-89029190D01*
X134567143Y-89029190D02*
X134681428Y-88972047D01*
X134681428Y-88972047D02*
X134795714Y-88857761D01*
X134795714Y-88857761D02*
X134852857Y-88629190D01*
X134852857Y-88629190D02*
X134852857Y-88229190D01*
X134852857Y-88229190D02*
X134795714Y-88000618D01*
X134795714Y-88000618D02*
X134681428Y-87886333D01*
X134681428Y-87886333D02*
X134567143Y-87829190D01*
X134567143Y-87829190D02*
X134338571Y-87829190D01*
X134338571Y-87829190D02*
X134224286Y-87886333D01*
X134224286Y-87886333D02*
X134110000Y-88000618D01*
X134110000Y-88000618D02*
X134052857Y-88229190D01*
X134052857Y-88229190D02*
X134052857Y-88629190D01*
X134052857Y-88629190D02*
X134110000Y-88857761D01*
X134110000Y-88857761D02*
X134224286Y-88972047D01*
X134224286Y-88972047D02*
X134338571Y-89029190D01*
X135938571Y-87829190D02*
X135367143Y-87829190D01*
X135367143Y-87829190D02*
X135367143Y-89029190D01*
X136338572Y-87829190D02*
X136338572Y-89029190D01*
X136338572Y-89029190D02*
X136624286Y-89029190D01*
X136624286Y-89029190D02*
X136795715Y-88972047D01*
X136795715Y-88972047D02*
X136910000Y-88857761D01*
X136910000Y-88857761D02*
X136967143Y-88743475D01*
X136967143Y-88743475D02*
X137024286Y-88514904D01*
X137024286Y-88514904D02*
X137024286Y-88343475D01*
X137024286Y-88343475D02*
X136967143Y-88114904D01*
X136967143Y-88114904D02*
X136910000Y-88000618D01*
X136910000Y-88000618D02*
X136795715Y-87886333D01*
X136795715Y-87886333D02*
X136624286Y-87829190D01*
X136624286Y-87829190D02*
X136338572Y-87829190D01*
X137538572Y-88457761D02*
X137938572Y-88457761D01*
X138110000Y-87829190D02*
X137538572Y-87829190D01*
X137538572Y-87829190D02*
X137538572Y-89029190D01*
X137538572Y-89029190D02*
X138110000Y-89029190D01*
X139310000Y-87829190D02*
X138910000Y-88400618D01*
X138624286Y-87829190D02*
X138624286Y-89029190D01*
X138624286Y-89029190D02*
X139081429Y-89029190D01*
X139081429Y-89029190D02*
X139195714Y-88972047D01*
X139195714Y-88972047D02*
X139252857Y-88914904D01*
X139252857Y-88914904D02*
X139310000Y-88800618D01*
X139310000Y-88800618D02*
X139310000Y-88629190D01*
X139310000Y-88629190D02*
X139252857Y-88514904D01*
X139252857Y-88514904D02*
X139195714Y-88457761D01*
X139195714Y-88457761D02*
X139081429Y-88400618D01*
X139081429Y-88400618D02*
X138624286Y-88400618D01*
X134338571Y-85954400D02*
X134510000Y-85897257D01*
X134510000Y-85897257D02*
X134795714Y-85897257D01*
X134795714Y-85897257D02*
X134910000Y-85954400D01*
X134910000Y-85954400D02*
X134967142Y-86011542D01*
X134967142Y-86011542D02*
X135024285Y-86125828D01*
X135024285Y-86125828D02*
X135024285Y-86240114D01*
X135024285Y-86240114D02*
X134967142Y-86354400D01*
X134967142Y-86354400D02*
X134910000Y-86411542D01*
X134910000Y-86411542D02*
X134795714Y-86468685D01*
X134795714Y-86468685D02*
X134567142Y-86525828D01*
X134567142Y-86525828D02*
X134452857Y-86582971D01*
X134452857Y-86582971D02*
X134395714Y-86640114D01*
X134395714Y-86640114D02*
X134338571Y-86754400D01*
X134338571Y-86754400D02*
X134338571Y-86868685D01*
X134338571Y-86868685D02*
X134395714Y-86982971D01*
X134395714Y-86982971D02*
X134452857Y-87040114D01*
X134452857Y-87040114D02*
X134567142Y-87097257D01*
X134567142Y-87097257D02*
X134852857Y-87097257D01*
X134852857Y-87097257D02*
X135024285Y-87040114D01*
X135538571Y-85897257D02*
X135538571Y-87097257D01*
X136110000Y-85897257D02*
X136110000Y-87097257D01*
X136110000Y-87097257D02*
X136395714Y-87097257D01*
X136395714Y-87097257D02*
X136567143Y-87040114D01*
X136567143Y-87040114D02*
X136681428Y-86925828D01*
X136681428Y-86925828D02*
X136738571Y-86811542D01*
X136738571Y-86811542D02*
X136795714Y-86582971D01*
X136795714Y-86582971D02*
X136795714Y-86411542D01*
X136795714Y-86411542D02*
X136738571Y-86182971D01*
X136738571Y-86182971D02*
X136681428Y-86068685D01*
X136681428Y-86068685D02*
X136567143Y-85954400D01*
X136567143Y-85954400D02*
X136395714Y-85897257D01*
X136395714Y-85897257D02*
X136110000Y-85897257D01*
X137310000Y-86525828D02*
X137710000Y-86525828D01*
X137881428Y-85897257D02*
X137310000Y-85897257D01*
X137310000Y-85897257D02*
X137310000Y-87097257D01*
X137310000Y-87097257D02*
X137881428Y-87097257D01*
D11*
X115927200Y-91236800D02*
X117000000Y-91236800D01*
X117000000Y-92600000D01*
X115927200Y-92600000D01*
X115927200Y-91236800D01*
G36*
X115927200Y-91236800D02*
G01*
X117000000Y-91236800D01*
X117000000Y-92600000D01*
X115927200Y-92600000D01*
X115927200Y-91236800D01*
G37*
X113284000Y-82143600D02*
X115570000Y-82143600D01*
X115570000Y-93573600D01*
X113284000Y-93573600D01*
X113284000Y-82143600D01*
X116027200Y-82180000D02*
X117000000Y-82180000D01*
X117000000Y-83413600D01*
X116027200Y-83413600D01*
X116027200Y-82180000D01*
G36*
X116027200Y-82180000D02*
G01*
X117000000Y-82180000D01*
X117000000Y-83413600D01*
X116027200Y-83413600D01*
X116027200Y-82180000D01*
G37*
X115874800Y-82129200D02*
X123139200Y-82129200D01*
X123139200Y-92673600D01*
X115874800Y-92673600D01*
X115874800Y-82129200D01*
X123088400Y-84836000D02*
X117094000Y-84836000D01*
X123088400Y-89916000D02*
X117094000Y-89916000D01*
X123088400Y-87376000D02*
X117094000Y-87376000D01*
X118118600Y-83004264D02*
X118156695Y-83118550D01*
X118156695Y-83118550D02*
X118156695Y-83309026D01*
X118156695Y-83309026D02*
X118118600Y-83385217D01*
X118118600Y-83385217D02*
X118080504Y-83423312D01*
X118080504Y-83423312D02*
X118004314Y-83461407D01*
X118004314Y-83461407D02*
X117928123Y-83461407D01*
X117928123Y-83461407D02*
X117851933Y-83423312D01*
X117851933Y-83423312D02*
X117813838Y-83385217D01*
X117813838Y-83385217D02*
X117775742Y-83309026D01*
X117775742Y-83309026D02*
X117737647Y-83156645D01*
X117737647Y-83156645D02*
X117699552Y-83080455D01*
X117699552Y-83080455D02*
X117661457Y-83042360D01*
X117661457Y-83042360D02*
X117585266Y-83004264D01*
X117585266Y-83004264D02*
X117509076Y-83004264D01*
X117509076Y-83004264D02*
X117432885Y-83042360D01*
X117432885Y-83042360D02*
X117394790Y-83080455D01*
X117394790Y-83080455D02*
X117356695Y-83156645D01*
X117356695Y-83156645D02*
X117356695Y-83347122D01*
X117356695Y-83347122D02*
X117394790Y-83461407D01*
X117356695Y-83956646D02*
X117356695Y-84032836D01*
X117356695Y-84032836D02*
X117394790Y-84109027D01*
X117394790Y-84109027D02*
X117432885Y-84147122D01*
X117432885Y-84147122D02*
X117509076Y-84185217D01*
X117509076Y-84185217D02*
X117661457Y-84223312D01*
X117661457Y-84223312D02*
X117851933Y-84223312D01*
X117851933Y-84223312D02*
X118004314Y-84185217D01*
X118004314Y-84185217D02*
X118080504Y-84147122D01*
X118080504Y-84147122D02*
X118118600Y-84109027D01*
X118118600Y-84109027D02*
X118156695Y-84032836D01*
X118156695Y-84032836D02*
X118156695Y-83956646D01*
X118156695Y-83956646D02*
X118118600Y-83880455D01*
X118118600Y-83880455D02*
X118080504Y-83842360D01*
X118080504Y-83842360D02*
X118004314Y-83804265D01*
X118004314Y-83804265D02*
X117851933Y-83766169D01*
X117851933Y-83766169D02*
X117661457Y-83766169D01*
X117661457Y-83766169D02*
X117509076Y-83804265D01*
X117509076Y-83804265D02*
X117432885Y-83842360D01*
X117432885Y-83842360D02*
X117394790Y-83880455D01*
X117394790Y-83880455D02*
X117356695Y-83956646D01*
X118118600Y-90573464D02*
X118156695Y-90687750D01*
X118156695Y-90687750D02*
X118156695Y-90878226D01*
X118156695Y-90878226D02*
X118118600Y-90954417D01*
X118118600Y-90954417D02*
X118080504Y-90992512D01*
X118080504Y-90992512D02*
X118004314Y-91030607D01*
X118004314Y-91030607D02*
X117928123Y-91030607D01*
X117928123Y-91030607D02*
X117851933Y-90992512D01*
X117851933Y-90992512D02*
X117813838Y-90954417D01*
X117813838Y-90954417D02*
X117775742Y-90878226D01*
X117775742Y-90878226D02*
X117737647Y-90725845D01*
X117737647Y-90725845D02*
X117699552Y-90649655D01*
X117699552Y-90649655D02*
X117661457Y-90611560D01*
X117661457Y-90611560D02*
X117585266Y-90573464D01*
X117585266Y-90573464D02*
X117509076Y-90573464D01*
X117509076Y-90573464D02*
X117432885Y-90611560D01*
X117432885Y-90611560D02*
X117394790Y-90649655D01*
X117394790Y-90649655D02*
X117356695Y-90725845D01*
X117356695Y-90725845D02*
X117356695Y-90916322D01*
X117356695Y-90916322D02*
X117394790Y-91030607D01*
X117356695Y-91297274D02*
X117356695Y-91792512D01*
X117356695Y-91792512D02*
X117661457Y-91525846D01*
X117661457Y-91525846D02*
X117661457Y-91640131D01*
X117661457Y-91640131D02*
X117699552Y-91716322D01*
X117699552Y-91716322D02*
X117737647Y-91754417D01*
X117737647Y-91754417D02*
X117813838Y-91792512D01*
X117813838Y-91792512D02*
X118004314Y-91792512D01*
X118004314Y-91792512D02*
X118080504Y-91754417D01*
X118080504Y-91754417D02*
X118118600Y-91716322D01*
X118118600Y-91716322D02*
X118156695Y-91640131D01*
X118156695Y-91640131D02*
X118156695Y-91411560D01*
X118156695Y-91411560D02*
X118118600Y-91335369D01*
X118118600Y-91335369D02*
X118080504Y-91297274D01*
D10*
X144157028Y-78442857D02*
X144099885Y-78500000D01*
X144099885Y-78500000D02*
X144042742Y-78614286D01*
X144042742Y-78614286D02*
X144042742Y-78900000D01*
X144042742Y-78900000D02*
X144099885Y-79014286D01*
X144099885Y-79014286D02*
X144157028Y-79071428D01*
X144157028Y-79071428D02*
X144271314Y-79128571D01*
X144271314Y-79128571D02*
X144385600Y-79128571D01*
X144385600Y-79128571D02*
X144557028Y-79071428D01*
X144557028Y-79071428D02*
X145242742Y-78385714D01*
X145242742Y-78385714D02*
X145242742Y-79128571D01*
X144042742Y-79528571D02*
X144042742Y-80271428D01*
X144042742Y-80271428D02*
X144499885Y-79871428D01*
X144499885Y-79871428D02*
X144499885Y-80042857D01*
X144499885Y-80042857D02*
X144557028Y-80157143D01*
X144557028Y-80157143D02*
X144614171Y-80214285D01*
X144614171Y-80214285D02*
X144728457Y-80271428D01*
X144728457Y-80271428D02*
X145014171Y-80271428D01*
X145014171Y-80271428D02*
X145128457Y-80214285D01*
X145128457Y-80214285D02*
X145185600Y-80157143D01*
X145185600Y-80157143D02*
X145242742Y-80042857D01*
X145242742Y-80042857D02*
X145242742Y-79700000D01*
X145242742Y-79700000D02*
X145185600Y-79585714D01*
X145185600Y-79585714D02*
X145128457Y-79528571D01*
X144042742Y-80671428D02*
X144042742Y-81414285D01*
X144042742Y-81414285D02*
X144499885Y-81014285D01*
X144499885Y-81014285D02*
X144499885Y-81185714D01*
X144499885Y-81185714D02*
X144557028Y-81300000D01*
X144557028Y-81300000D02*
X144614171Y-81357142D01*
X144614171Y-81357142D02*
X144728457Y-81414285D01*
X144728457Y-81414285D02*
X145014171Y-81414285D01*
X145014171Y-81414285D02*
X145128457Y-81357142D01*
X145128457Y-81357142D02*
X145185600Y-81300000D01*
X145185600Y-81300000D02*
X145242742Y-81185714D01*
X145242742Y-81185714D02*
X145242742Y-80842857D01*
X145242742Y-80842857D02*
X145185600Y-80728571D01*
X145185600Y-80728571D02*
X145128457Y-80671428D01*
X144157028Y-81871428D02*
X144099885Y-81928571D01*
X144099885Y-81928571D02*
X144042742Y-82042857D01*
X144042742Y-82042857D02*
X144042742Y-82328571D01*
X144042742Y-82328571D02*
X144099885Y-82442857D01*
X144099885Y-82442857D02*
X144157028Y-82499999D01*
X144157028Y-82499999D02*
X144271314Y-82557142D01*
X144271314Y-82557142D02*
X144385600Y-82557142D01*
X144385600Y-82557142D02*
X144557028Y-82499999D01*
X144557028Y-82499999D02*
X145242742Y-81814285D01*
X145242742Y-81814285D02*
X145242742Y-82557142D01*
D11*
G36*
X116438342Y-90885036D02*
G01*
X116413608Y-90934504D01*
X116392725Y-90955386D01*
X116343256Y-90980122D01*
X116264381Y-90980122D01*
X116214912Y-90955387D01*
X116194029Y-90934504D01*
X116169295Y-90885036D01*
X116169295Y-90672979D01*
X116438342Y-90672979D01*
X116438342Y-90885036D01*
G37*
G36*
X116819295Y-89252475D02*
G01*
X116790648Y-89338416D01*
X116735582Y-89393481D01*
X116677642Y-89422451D01*
X116542203Y-89456312D01*
X116446387Y-89456312D01*
X116310945Y-89422451D01*
X116253006Y-89393481D01*
X116197942Y-89338417D01*
X116169295Y-89252475D01*
X116169295Y-89149169D01*
X116819295Y-89149169D01*
X116819295Y-89252475D01*
G37*
G36*
X116590723Y-88627254D02*
G01*
X116331465Y-88540835D01*
X116590723Y-88454416D01*
X116590723Y-88627254D01*
G37*
G36*
X117058184Y-91219011D02*
G01*
X115930406Y-91219011D01*
X115930406Y-90597979D01*
X116019295Y-90597979D01*
X116019295Y-90902741D01*
X116020736Y-90917373D01*
X116021767Y-90919862D01*
X116021958Y-90922550D01*
X116027213Y-90936282D01*
X116065308Y-91012472D01*
X116069272Y-91018771D01*
X116070030Y-91020599D01*
X116071718Y-91022655D01*
X116073140Y-91024915D01*
X116074638Y-91026214D01*
X116079357Y-91031964D01*
X116117452Y-91070059D01*
X116123204Y-91074779D01*
X116124501Y-91076275D01*
X116126755Y-91077694D01*
X116128817Y-91079386D01*
X116130647Y-91080144D01*
X116136944Y-91084108D01*
X116213134Y-91122204D01*
X116226866Y-91127459D01*
X116229555Y-91127650D01*
X116232044Y-91128681D01*
X116246676Y-91130122D01*
X116360961Y-91130122D01*
X116375593Y-91128681D01*
X116378081Y-91127650D01*
X116380771Y-91127459D01*
X116394502Y-91122204D01*
X116470693Y-91084108D01*
X116476989Y-91080144D01*
X116478820Y-91079386D01*
X116480881Y-91077694D01*
X116483136Y-91076275D01*
X116484432Y-91074779D01*
X116490185Y-91070059D01*
X116528280Y-91031964D01*
X116532998Y-91026214D01*
X116534497Y-91024915D01*
X116535918Y-91022655D01*
X116537607Y-91020599D01*
X116538364Y-91018771D01*
X116542329Y-91012472D01*
X116580424Y-90936282D01*
X116583237Y-90928930D01*
X116851285Y-91116564D01*
X116864098Y-91123775D01*
X116892669Y-91130104D01*
X116921487Y-91125019D01*
X116946166Y-91109292D01*
X116962948Y-91085318D01*
X116969277Y-91056747D01*
X116964192Y-91027930D01*
X116948465Y-91003251D01*
X116937304Y-90993679D01*
X116588342Y-90749405D01*
X116588342Y-90672979D01*
X116894295Y-90672979D01*
X116908927Y-90671538D01*
X116935963Y-90660339D01*
X116956655Y-90639647D01*
X116967854Y-90612611D01*
X116967854Y-90583347D01*
X116956655Y-90556311D01*
X116935963Y-90535619D01*
X116908927Y-90524420D01*
X116894295Y-90522979D01*
X116094295Y-90522979D01*
X116079663Y-90524420D01*
X116052627Y-90535619D01*
X116031935Y-90556311D01*
X116020736Y-90583347D01*
X116019295Y-90597979D01*
X115930406Y-90597979D01*
X115930406Y-89874169D01*
X116019295Y-89874169D01*
X116019295Y-90255121D01*
X116020736Y-90269753D01*
X116031935Y-90296789D01*
X116052627Y-90317481D01*
X116079663Y-90328680D01*
X116108927Y-90328680D01*
X116135963Y-90317481D01*
X116156655Y-90296789D01*
X116167854Y-90269753D01*
X116169295Y-90255121D01*
X116169295Y-89949169D01*
X116400247Y-89949169D01*
X116400247Y-90140835D01*
X116401688Y-90155467D01*
X116412887Y-90182503D01*
X116433579Y-90203195D01*
X116460615Y-90214394D01*
X116489879Y-90214394D01*
X116516915Y-90203195D01*
X116537607Y-90182503D01*
X116548806Y-90155467D01*
X116550247Y-90140835D01*
X116550247Y-89949169D01*
X116819295Y-89949169D01*
X116819295Y-90255121D01*
X116820736Y-90269753D01*
X116831935Y-90296789D01*
X116852627Y-90317481D01*
X116879663Y-90328680D01*
X116908927Y-90328680D01*
X116935963Y-90317481D01*
X116956655Y-90296789D01*
X116967854Y-90269753D01*
X116969295Y-90255121D01*
X116969295Y-89874169D01*
X116967854Y-89859537D01*
X116956655Y-89832501D01*
X116935963Y-89811809D01*
X116908927Y-89800610D01*
X116894295Y-89799169D01*
X116094295Y-89799169D01*
X116079663Y-89800610D01*
X116052627Y-89811809D01*
X116031935Y-89832501D01*
X116020736Y-89859537D01*
X116019295Y-89874169D01*
X115930406Y-89874169D01*
X115930406Y-89074169D01*
X116019295Y-89074169D01*
X116019295Y-89264645D01*
X116020024Y-89272050D01*
X116019884Y-89274025D01*
X116020474Y-89276622D01*
X116020736Y-89279277D01*
X116021494Y-89281108D01*
X116023144Y-89288362D01*
X116061239Y-89402648D01*
X116067233Y-89416073D01*
X116068998Y-89418108D01*
X116070030Y-89420599D01*
X116079357Y-89431964D01*
X116155547Y-89508154D01*
X116161297Y-89512874D01*
X116162596Y-89514371D01*
X116164850Y-89515790D01*
X116166912Y-89517482D01*
X116168744Y-89518240D01*
X116175039Y-89522203D01*
X116251230Y-89560298D01*
X116252299Y-89560707D01*
X116252735Y-89561030D01*
X116258886Y-89563228D01*
X116264962Y-89565553D01*
X116265500Y-89565591D01*
X116266580Y-89565977D01*
X116418962Y-89604073D01*
X116421498Y-89604448D01*
X116422520Y-89604871D01*
X116428032Y-89605413D01*
X116433506Y-89606223D01*
X116434598Y-89606060D01*
X116437152Y-89606312D01*
X116551438Y-89606312D01*
X116553991Y-89606060D01*
X116555084Y-89606223D01*
X116560558Y-89605413D01*
X116566070Y-89604871D01*
X116567090Y-89604448D01*
X116569629Y-89604073D01*
X116722010Y-89565977D01*
X116723089Y-89565591D01*
X116723628Y-89565553D01*
X116729703Y-89563228D01*
X116735855Y-89561030D01*
X116736290Y-89560707D01*
X116737360Y-89560298D01*
X116813550Y-89522203D01*
X116819846Y-89518239D01*
X116821676Y-89517482D01*
X116823734Y-89515792D01*
X116825993Y-89514371D01*
X116827292Y-89512872D01*
X116833042Y-89508154D01*
X116909233Y-89431964D01*
X116918560Y-89420599D01*
X116919591Y-89418108D01*
X116921357Y-89416073D01*
X116927351Y-89402648D01*
X116965446Y-89288362D01*
X116967095Y-89281108D01*
X116967854Y-89279277D01*
X116968115Y-89276622D01*
X116968706Y-89274025D01*
X116968565Y-89272050D01*
X116969295Y-89264645D01*
X116969295Y-89074169D01*
X116967854Y-89059537D01*
X116956655Y-89032501D01*
X116935963Y-89011809D01*
X116908927Y-89000610D01*
X116894295Y-88999169D01*
X116094295Y-88999169D01*
X116079663Y-89000610D01*
X116052627Y-89011809D01*
X116031935Y-89032501D01*
X116020736Y-89059537D01*
X116019295Y-89074169D01*
X115930406Y-89074169D01*
X115930406Y-88531456D01*
X116019884Y-88531456D01*
X116020550Y-88540836D01*
X116019884Y-88550216D01*
X116021579Y-88555301D01*
X116021959Y-88560646D01*
X116026163Y-88569055D01*
X116029138Y-88577979D01*
X116032649Y-88582027D01*
X116035045Y-88586819D01*
X116042148Y-88592980D01*
X116048312Y-88600086D01*
X116053105Y-88602482D01*
X116057153Y-88605993D01*
X116070578Y-88611987D01*
X116870578Y-88878653D01*
X116884915Y-88881913D01*
X116914105Y-88879839D01*
X116940279Y-88866752D01*
X116959452Y-88844645D01*
X116968706Y-88816882D01*
X116966632Y-88787692D01*
X116953545Y-88761519D01*
X116931438Y-88742345D01*
X116918012Y-88736351D01*
X116740723Y-88677254D01*
X116740723Y-88404416D01*
X116918012Y-88345320D01*
X116931437Y-88339326D01*
X116953545Y-88320152D01*
X116966631Y-88293979D01*
X116968706Y-88264789D01*
X116959452Y-88237026D01*
X116940278Y-88214919D01*
X116914105Y-88201833D01*
X116884915Y-88199758D01*
X116870578Y-88203018D01*
X116070578Y-88469685D01*
X116057152Y-88475679D01*
X116053103Y-88479190D01*
X116048312Y-88481586D01*
X116042150Y-88488689D01*
X116035045Y-88494853D01*
X116032648Y-88499646D01*
X116029138Y-88503694D01*
X116026164Y-88512615D01*
X116021959Y-88521026D01*
X116021579Y-88526370D01*
X116019884Y-88531456D01*
X115930406Y-88531456D01*
X115930406Y-87664645D01*
X116019295Y-87664645D01*
X116019295Y-88045597D01*
X116020736Y-88060229D01*
X116031935Y-88087265D01*
X116052627Y-88107957D01*
X116079663Y-88119156D01*
X116108927Y-88119156D01*
X116135963Y-88107957D01*
X116156655Y-88087265D01*
X116167854Y-88060229D01*
X116169295Y-88045597D01*
X116169295Y-87739645D01*
X116400247Y-87739645D01*
X116400247Y-87931311D01*
X116401688Y-87945943D01*
X116412887Y-87972979D01*
X116433579Y-87993671D01*
X116460615Y-88004870D01*
X116489879Y-88004870D01*
X116516915Y-87993671D01*
X116537607Y-87972979D01*
X116548806Y-87945943D01*
X116550247Y-87931311D01*
X116550247Y-87739645D01*
X116819295Y-87739645D01*
X116819295Y-88045597D01*
X116820736Y-88060229D01*
X116831935Y-88087265D01*
X116852627Y-88107957D01*
X116879663Y-88119156D01*
X116908927Y-88119156D01*
X116935963Y-88107957D01*
X116956655Y-88087265D01*
X116967854Y-88060229D01*
X116969295Y-88045597D01*
X116969295Y-87664645D01*
X116967854Y-87650013D01*
X116956655Y-87622977D01*
X116935963Y-87602285D01*
X116908927Y-87591086D01*
X116894295Y-87589645D01*
X116094295Y-87589645D01*
X116079663Y-87591086D01*
X116052627Y-87602285D01*
X116031935Y-87622977D01*
X116020736Y-87650013D01*
X116019295Y-87664645D01*
X115930406Y-87664645D01*
X115930406Y-86811918D01*
X116020736Y-86811918D01*
X116020736Y-86841182D01*
X116031935Y-86868218D01*
X116052627Y-86888910D01*
X116079663Y-86900109D01*
X116094295Y-86901550D01*
X116400247Y-86901550D01*
X116400247Y-87208693D01*
X116094295Y-87208693D01*
X116079663Y-87210134D01*
X116052627Y-87221333D01*
X116031935Y-87242025D01*
X116020736Y-87269061D01*
X116020736Y-87298325D01*
X116031935Y-87325361D01*
X116052627Y-87346053D01*
X116079663Y-87357252D01*
X116094295Y-87358693D01*
X116894295Y-87358693D01*
X116908927Y-87357252D01*
X116935963Y-87346053D01*
X116956655Y-87325361D01*
X116967854Y-87298325D01*
X116967854Y-87269061D01*
X116956655Y-87242025D01*
X116935963Y-87221333D01*
X116908927Y-87210134D01*
X116894295Y-87208693D01*
X116550247Y-87208693D01*
X116550247Y-86901550D01*
X116894295Y-86901550D01*
X116908927Y-86900109D01*
X116935963Y-86888910D01*
X116956655Y-86868218D01*
X116967854Y-86841182D01*
X116967854Y-86811918D01*
X116956655Y-86784882D01*
X116935963Y-86764190D01*
X116908927Y-86752991D01*
X116894295Y-86751550D01*
X116094295Y-86751550D01*
X116079663Y-86752991D01*
X116052627Y-86764190D01*
X116031935Y-86784882D01*
X116020736Y-86811918D01*
X115930406Y-86811918D01*
X115930406Y-85402394D01*
X116020736Y-85402394D01*
X116020736Y-85431658D01*
X116031935Y-85458694D01*
X116052627Y-85479386D01*
X116079663Y-85490585D01*
X116094295Y-85492026D01*
X116370372Y-85492026D01*
X116041262Y-85821136D01*
X116031935Y-85832501D01*
X116020736Y-85859538D01*
X116020736Y-85888800D01*
X116031935Y-85915837D01*
X116052627Y-85936529D01*
X116079664Y-85947728D01*
X116108926Y-85947728D01*
X116135963Y-85936529D01*
X116147328Y-85927202D01*
X116444190Y-85630339D01*
X116849295Y-85934169D01*
X116861865Y-85941795D01*
X116890213Y-85949058D01*
X116919182Y-85944919D01*
X116944363Y-85930010D01*
X116961921Y-85906599D01*
X116969184Y-85878251D01*
X116965045Y-85849282D01*
X116950136Y-85824101D01*
X116939295Y-85814169D01*
X116551333Y-85523196D01*
X116582504Y-85492026D01*
X116894295Y-85492026D01*
X116908927Y-85490585D01*
X116935963Y-85479386D01*
X116956655Y-85458694D01*
X116967854Y-85431658D01*
X116967854Y-85402394D01*
X116956655Y-85375358D01*
X116935963Y-85354666D01*
X116908927Y-85343467D01*
X116894295Y-85342026D01*
X116094295Y-85342026D01*
X116079663Y-85343467D01*
X116052627Y-85354666D01*
X116031935Y-85375358D01*
X116020736Y-85402394D01*
X115930406Y-85402394D01*
X115930406Y-84584170D01*
X116019478Y-84584170D01*
X116020736Y-84588782D01*
X116020736Y-84593563D01*
X116024553Y-84602778D01*
X116027178Y-84612402D01*
X116030105Y-84616182D01*
X116031935Y-84620599D01*
X116038985Y-84627649D01*
X116045095Y-84635539D01*
X116051227Y-84639891D01*
X116052627Y-84641291D01*
X116054001Y-84641860D01*
X116057085Y-84644049D01*
X116611879Y-84961074D01*
X116094295Y-84961074D01*
X116079663Y-84962515D01*
X116052627Y-84973714D01*
X116031935Y-84994406D01*
X116020736Y-85021442D01*
X116020736Y-85050706D01*
X116031935Y-85077742D01*
X116052627Y-85098434D01*
X116079663Y-85109633D01*
X116094295Y-85111074D01*
X116894295Y-85111074D01*
X116898058Y-85110703D01*
X116899534Y-85110891D01*
X116901444Y-85110369D01*
X116908927Y-85109633D01*
X116918142Y-85105815D01*
X116927766Y-85103191D01*
X116931546Y-85100263D01*
X116935963Y-85098434D01*
X116943013Y-85091383D01*
X116950903Y-85085274D01*
X116953276Y-85081120D01*
X116956655Y-85077742D01*
X116960471Y-85068529D01*
X116965422Y-85059865D01*
X116966024Y-85055121D01*
X116967854Y-85050706D01*
X116967854Y-85040731D01*
X116969112Y-85030835D01*
X116967854Y-85026222D01*
X116967854Y-85021442D01*
X116964036Y-85012225D01*
X116961412Y-85002604D01*
X116958485Y-84998824D01*
X116956655Y-84994406D01*
X116949603Y-84987354D01*
X116943495Y-84979466D01*
X116937362Y-84975113D01*
X116935963Y-84973714D01*
X116934588Y-84973144D01*
X116931505Y-84970956D01*
X116376711Y-84653931D01*
X116894295Y-84653931D01*
X116908927Y-84652490D01*
X116935963Y-84641291D01*
X116956655Y-84620599D01*
X116967854Y-84593563D01*
X116967854Y-84564299D01*
X116956655Y-84537263D01*
X116935963Y-84516571D01*
X116908927Y-84505372D01*
X116894295Y-84503931D01*
X116094295Y-84503931D01*
X116090531Y-84504301D01*
X116089056Y-84504114D01*
X116087145Y-84504635D01*
X116079663Y-84505372D01*
X116070447Y-84509189D01*
X116060824Y-84511814D01*
X116057043Y-84514741D01*
X116052627Y-84516571D01*
X116045576Y-84523621D01*
X116037687Y-84529731D01*
X116035313Y-84533884D01*
X116031935Y-84537263D01*
X116028118Y-84546475D01*
X116023168Y-84555140D01*
X116022565Y-84559883D01*
X116020736Y-84564299D01*
X116020736Y-84574273D01*
X116019478Y-84584170D01*
X115930406Y-84584170D01*
X115930406Y-84183347D01*
X116020736Y-84183347D01*
X116020736Y-84212611D01*
X116031935Y-84239647D01*
X116052627Y-84260339D01*
X116079663Y-84271538D01*
X116094295Y-84272979D01*
X116894295Y-84272979D01*
X116908927Y-84271538D01*
X116935963Y-84260339D01*
X116956655Y-84239647D01*
X116967854Y-84212611D01*
X116967854Y-84183347D01*
X116956655Y-84156311D01*
X116935963Y-84135619D01*
X116908927Y-84124420D01*
X116894295Y-84122979D01*
X116094295Y-84122979D01*
X116079663Y-84124420D01*
X116052627Y-84135619D01*
X116031935Y-84156311D01*
X116020736Y-84183347D01*
X115930406Y-84183347D01*
X115930406Y-83535728D01*
X116020736Y-83535728D01*
X116020736Y-83564992D01*
X116031935Y-83592028D01*
X116052627Y-83612720D01*
X116079663Y-83623919D01*
X116094295Y-83625360D01*
X116819295Y-83625360D01*
X116819295Y-83931312D01*
X116820736Y-83945944D01*
X116831935Y-83972980D01*
X116852627Y-83993672D01*
X116879663Y-84004871D01*
X116908927Y-84004871D01*
X116935963Y-83993672D01*
X116956655Y-83972980D01*
X116967854Y-83945944D01*
X116969295Y-83931312D01*
X116969295Y-83550360D01*
X116967854Y-83535728D01*
X116956655Y-83508692D01*
X116935963Y-83488000D01*
X116908927Y-83476801D01*
X116894295Y-83475360D01*
X116094295Y-83475360D01*
X116079663Y-83476801D01*
X116052627Y-83488000D01*
X116031935Y-83508692D01*
X116020736Y-83535728D01*
X115930406Y-83535728D01*
X115930406Y-83386471D01*
X117058184Y-83386471D01*
X117058184Y-91219011D01*
G37*
X118118600Y-88084264D02*
X118156695Y-88198550D01*
X118156695Y-88198550D02*
X118156695Y-88389026D01*
X118156695Y-88389026D02*
X118118600Y-88465217D01*
X118118600Y-88465217D02*
X118080504Y-88503312D01*
X118080504Y-88503312D02*
X118004314Y-88541407D01*
X118004314Y-88541407D02*
X117928123Y-88541407D01*
X117928123Y-88541407D02*
X117851933Y-88503312D01*
X117851933Y-88503312D02*
X117813838Y-88465217D01*
X117813838Y-88465217D02*
X117775742Y-88389026D01*
X117775742Y-88389026D02*
X117737647Y-88236645D01*
X117737647Y-88236645D02*
X117699552Y-88160455D01*
X117699552Y-88160455D02*
X117661457Y-88122360D01*
X117661457Y-88122360D02*
X117585266Y-88084264D01*
X117585266Y-88084264D02*
X117509076Y-88084264D01*
X117509076Y-88084264D02*
X117432885Y-88122360D01*
X117432885Y-88122360D02*
X117394790Y-88160455D01*
X117394790Y-88160455D02*
X117356695Y-88236645D01*
X117356695Y-88236645D02*
X117356695Y-88427122D01*
X117356695Y-88427122D02*
X117394790Y-88541407D01*
X117432885Y-88846169D02*
X117394790Y-88884265D01*
X117394790Y-88884265D02*
X117356695Y-88960455D01*
X117356695Y-88960455D02*
X117356695Y-89150931D01*
X117356695Y-89150931D02*
X117394790Y-89227122D01*
X117394790Y-89227122D02*
X117432885Y-89265217D01*
X117432885Y-89265217D02*
X117509076Y-89303312D01*
X117509076Y-89303312D02*
X117585266Y-89303312D01*
X117585266Y-89303312D02*
X117699552Y-89265217D01*
X117699552Y-89265217D02*
X118156695Y-88808074D01*
X118156695Y-88808074D02*
X118156695Y-89303312D01*
X145611102Y-92406077D02*
X145573006Y-92367982D01*
X145573006Y-92367982D02*
X145458721Y-92291791D01*
X145458721Y-92291791D02*
X145382530Y-92253696D01*
X145382530Y-92253696D02*
X145268245Y-92215601D01*
X145268245Y-92215601D02*
X145077768Y-92177506D01*
X145077768Y-92177506D02*
X144925387Y-92177506D01*
X144925387Y-92177506D02*
X144734911Y-92215601D01*
X144734911Y-92215601D02*
X144620625Y-92253696D01*
X144620625Y-92253696D02*
X144544435Y-92291791D01*
X144544435Y-92291791D02*
X144430149Y-92367982D01*
X144430149Y-92367982D02*
X144392054Y-92406077D01*
X145230149Y-93167982D02*
X145268245Y-93129886D01*
X145268245Y-93129886D02*
X145306340Y-93015601D01*
X145306340Y-93015601D02*
X145306340Y-92939410D01*
X145306340Y-92939410D02*
X145268245Y-92825124D01*
X145268245Y-92825124D02*
X145192054Y-92748934D01*
X145192054Y-92748934D02*
X145115864Y-92710839D01*
X145115864Y-92710839D02*
X144963483Y-92672743D01*
X144963483Y-92672743D02*
X144849197Y-92672743D01*
X144849197Y-92672743D02*
X144696816Y-92710839D01*
X144696816Y-92710839D02*
X144620625Y-92748934D01*
X144620625Y-92748934D02*
X144544435Y-92825124D01*
X144544435Y-92825124D02*
X144506340Y-92939410D01*
X144506340Y-92939410D02*
X144506340Y-93015601D01*
X144506340Y-93015601D02*
X144544435Y-93129886D01*
X144544435Y-93129886D02*
X144582530Y-93167982D01*
X145611102Y-93434648D02*
X145573006Y-93472743D01*
X145573006Y-93472743D02*
X145458721Y-93548934D01*
X145458721Y-93548934D02*
X145382530Y-93587029D01*
X145382530Y-93587029D02*
X145268245Y-93625124D01*
X145268245Y-93625124D02*
X145077768Y-93663220D01*
X145077768Y-93663220D02*
X144925387Y-93663220D01*
X144925387Y-93663220D02*
X144734911Y-93625124D01*
X144734911Y-93625124D02*
X144620625Y-93587029D01*
X144620625Y-93587029D02*
X144544435Y-93548934D01*
X144544435Y-93548934D02*
X144430149Y-93472743D01*
X144430149Y-93472743D02*
X144392054Y-93434648D01*
X144582530Y-94006076D02*
X144544435Y-94044172D01*
X144544435Y-94044172D02*
X144506340Y-94120362D01*
X144506340Y-94120362D02*
X144506340Y-94310838D01*
X144506340Y-94310838D02*
X144544435Y-94387029D01*
X144544435Y-94387029D02*
X144582530Y-94425124D01*
X144582530Y-94425124D02*
X144658721Y-94463219D01*
X144658721Y-94463219D02*
X144734911Y-94463219D01*
X144734911Y-94463219D02*
X144849197Y-94425124D01*
X144849197Y-94425124D02*
X145306340Y-93967981D01*
X145306340Y-93967981D02*
X145306340Y-94463219D01*
X144506340Y-94958458D02*
X144506340Y-95034648D01*
X144506340Y-95034648D02*
X144544435Y-95110839D01*
X144544435Y-95110839D02*
X144582530Y-95148934D01*
X144582530Y-95148934D02*
X144658721Y-95187029D01*
X144658721Y-95187029D02*
X144811102Y-95225124D01*
X144811102Y-95225124D02*
X145001578Y-95225124D01*
X145001578Y-95225124D02*
X145153959Y-95187029D01*
X145153959Y-95187029D02*
X145230149Y-95148934D01*
X145230149Y-95148934D02*
X145268245Y-95110839D01*
X145268245Y-95110839D02*
X145306340Y-95034648D01*
X145306340Y-95034648D02*
X145306340Y-94958458D01*
X145306340Y-94958458D02*
X145268245Y-94882267D01*
X145268245Y-94882267D02*
X145230149Y-94844172D01*
X145230149Y-94844172D02*
X145153959Y-94806077D01*
X145153959Y-94806077D02*
X145001578Y-94767981D01*
X145001578Y-94767981D02*
X144811102Y-94767981D01*
X144811102Y-94767981D02*
X144658721Y-94806077D01*
X144658721Y-94806077D02*
X144582530Y-94844172D01*
X144582530Y-94844172D02*
X144544435Y-94882267D01*
X144544435Y-94882267D02*
X144506340Y-94958458D01*
X144582530Y-95529886D02*
X144544435Y-95567982D01*
X144544435Y-95567982D02*
X144506340Y-95644172D01*
X144506340Y-95644172D02*
X144506340Y-95834648D01*
X144506340Y-95834648D02*
X144544435Y-95910839D01*
X144544435Y-95910839D02*
X144582530Y-95948934D01*
X144582530Y-95948934D02*
X144658721Y-95987029D01*
X144658721Y-95987029D02*
X144734911Y-95987029D01*
X144734911Y-95987029D02*
X144849197Y-95948934D01*
X144849197Y-95948934D02*
X145306340Y-95491791D01*
X145306340Y-95491791D02*
X145306340Y-95987029D01*
X144506340Y-96710839D02*
X144506340Y-96329887D01*
X144506340Y-96329887D02*
X144887292Y-96291791D01*
X144887292Y-96291791D02*
X144849197Y-96329887D01*
X144849197Y-96329887D02*
X144811102Y-96406077D01*
X144811102Y-96406077D02*
X144811102Y-96596553D01*
X144811102Y-96596553D02*
X144849197Y-96672744D01*
X144849197Y-96672744D02*
X144887292Y-96710839D01*
X144887292Y-96710839D02*
X144963483Y-96748934D01*
X144963483Y-96748934D02*
X145153959Y-96748934D01*
X145153959Y-96748934D02*
X145230149Y-96710839D01*
X145230149Y-96710839D02*
X145268245Y-96672744D01*
X145268245Y-96672744D02*
X145306340Y-96596553D01*
X145306340Y-96596553D02*
X145306340Y-96406077D01*
X145306340Y-96406077D02*
X145268245Y-96329887D01*
X145268245Y-96329887D02*
X145230149Y-96291791D01*
X146556200Y-89015600D02*
X146594295Y-89129886D01*
X146594295Y-89129886D02*
X146594295Y-89320362D01*
X146594295Y-89320362D02*
X146556200Y-89396553D01*
X146556200Y-89396553D02*
X146518104Y-89434648D01*
X146518104Y-89434648D02*
X146441914Y-89472743D01*
X146441914Y-89472743D02*
X146365723Y-89472743D01*
X146365723Y-89472743D02*
X146289533Y-89434648D01*
X146289533Y-89434648D02*
X146251438Y-89396553D01*
X146251438Y-89396553D02*
X146213342Y-89320362D01*
X146213342Y-89320362D02*
X146175247Y-89167981D01*
X146175247Y-89167981D02*
X146137152Y-89091791D01*
X146137152Y-89091791D02*
X146099057Y-89053696D01*
X146099057Y-89053696D02*
X146022866Y-89015600D01*
X146022866Y-89015600D02*
X145946676Y-89015600D01*
X145946676Y-89015600D02*
X145870485Y-89053696D01*
X145870485Y-89053696D02*
X145832390Y-89091791D01*
X145832390Y-89091791D02*
X145794295Y-89167981D01*
X145794295Y-89167981D02*
X145794295Y-89358458D01*
X145794295Y-89358458D02*
X145832390Y-89472743D01*
X146060961Y-89701315D02*
X146060961Y-90006077D01*
X145794295Y-89815601D02*
X146480009Y-89815601D01*
X146480009Y-89815601D02*
X146556200Y-89853696D01*
X146556200Y-89853696D02*
X146594295Y-89929886D01*
X146594295Y-89929886D02*
X146594295Y-90006077D01*
X146556200Y-90577506D02*
X146594295Y-90501315D01*
X146594295Y-90501315D02*
X146594295Y-90348934D01*
X146594295Y-90348934D02*
X146556200Y-90272744D01*
X146556200Y-90272744D02*
X146480009Y-90234648D01*
X146480009Y-90234648D02*
X146175247Y-90234648D01*
X146175247Y-90234648D02*
X146099057Y-90272744D01*
X146099057Y-90272744D02*
X146060961Y-90348934D01*
X146060961Y-90348934D02*
X146060961Y-90501315D01*
X146060961Y-90501315D02*
X146099057Y-90577506D01*
X146099057Y-90577506D02*
X146175247Y-90615601D01*
X146175247Y-90615601D02*
X146251438Y-90615601D01*
X146251438Y-90615601D02*
X146327628Y-90234648D01*
X146060961Y-90882267D02*
X146594295Y-91072743D01*
X146594295Y-91072743D02*
X146060961Y-91263220D01*
X146556200Y-91872744D02*
X146594295Y-91796553D01*
X146594295Y-91796553D02*
X146594295Y-91644172D01*
X146594295Y-91644172D02*
X146556200Y-91567982D01*
X146556200Y-91567982D02*
X146480009Y-91529886D01*
X146480009Y-91529886D02*
X146175247Y-91529886D01*
X146175247Y-91529886D02*
X146099057Y-91567982D01*
X146099057Y-91567982D02*
X146060961Y-91644172D01*
X146060961Y-91644172D02*
X146060961Y-91796553D01*
X146060961Y-91796553D02*
X146099057Y-91872744D01*
X146099057Y-91872744D02*
X146175247Y-91910839D01*
X146175247Y-91910839D02*
X146251438Y-91910839D01*
X146251438Y-91910839D02*
X146327628Y-91529886D01*
X145794295Y-93091791D02*
X146365723Y-93091791D01*
X146365723Y-93091791D02*
X146480009Y-93053696D01*
X146480009Y-93053696D02*
X146556200Y-92977505D01*
X146556200Y-92977505D02*
X146594295Y-92863220D01*
X146594295Y-92863220D02*
X146594295Y-92787029D01*
X146518104Y-93472744D02*
X146556200Y-93510839D01*
X146556200Y-93510839D02*
X146594295Y-93472744D01*
X146594295Y-93472744D02*
X146556200Y-93434648D01*
X146556200Y-93434648D02*
X146518104Y-93472744D01*
X146518104Y-93472744D02*
X146594295Y-93472744D01*
X145832390Y-94882267D02*
X145794295Y-94806077D01*
X145794295Y-94806077D02*
X145794295Y-94691791D01*
X145794295Y-94691791D02*
X145832390Y-94577505D01*
X145832390Y-94577505D02*
X145908580Y-94501315D01*
X145908580Y-94501315D02*
X145984771Y-94463220D01*
X145984771Y-94463220D02*
X146137152Y-94425124D01*
X146137152Y-94425124D02*
X146251438Y-94425124D01*
X146251438Y-94425124D02*
X146403819Y-94463220D01*
X146403819Y-94463220D02*
X146480009Y-94501315D01*
X146480009Y-94501315D02*
X146556200Y-94577505D01*
X146556200Y-94577505D02*
X146594295Y-94691791D01*
X146594295Y-94691791D02*
X146594295Y-94767982D01*
X146594295Y-94767982D02*
X146556200Y-94882267D01*
X146556200Y-94882267D02*
X146518104Y-94920363D01*
X146518104Y-94920363D02*
X146251438Y-94920363D01*
X146251438Y-94920363D02*
X146251438Y-94767982D01*
X146594295Y-95263220D02*
X146060961Y-95263220D01*
X146213342Y-95263220D02*
X146137152Y-95301315D01*
X146137152Y-95301315D02*
X146099057Y-95339410D01*
X146099057Y-95339410D02*
X146060961Y-95415601D01*
X146060961Y-95415601D02*
X146060961Y-95491791D01*
X146594295Y-96101315D02*
X146175247Y-96101315D01*
X146175247Y-96101315D02*
X146099057Y-96063220D01*
X146099057Y-96063220D02*
X146060961Y-95987029D01*
X146060961Y-95987029D02*
X146060961Y-95834648D01*
X146060961Y-95834648D02*
X146099057Y-95758458D01*
X146556200Y-96101315D02*
X146594295Y-96025124D01*
X146594295Y-96025124D02*
X146594295Y-95834648D01*
X146594295Y-95834648D02*
X146556200Y-95758458D01*
X146556200Y-95758458D02*
X146480009Y-95720362D01*
X146480009Y-95720362D02*
X146403819Y-95720362D01*
X146403819Y-95720362D02*
X146327628Y-95758458D01*
X146327628Y-95758458D02*
X146289533Y-95834648D01*
X146289533Y-95834648D02*
X146289533Y-96025124D01*
X146289533Y-96025124D02*
X146251438Y-96101315D01*
X146060961Y-96406077D02*
X146594295Y-96596553D01*
X146060961Y-96787030D02*
X146594295Y-96596553D01*
X146594295Y-96596553D02*
X146784771Y-96520363D01*
X146784771Y-96520363D02*
X146822866Y-96482268D01*
X146822866Y-96482268D02*
X146860961Y-96406077D01*
X118169400Y-85544264D02*
X118207495Y-85658550D01*
X118207495Y-85658550D02*
X118207495Y-85849026D01*
X118207495Y-85849026D02*
X118169400Y-85925217D01*
X118169400Y-85925217D02*
X118131304Y-85963312D01*
X118131304Y-85963312D02*
X118055114Y-86001407D01*
X118055114Y-86001407D02*
X117978923Y-86001407D01*
X117978923Y-86001407D02*
X117902733Y-85963312D01*
X117902733Y-85963312D02*
X117864638Y-85925217D01*
X117864638Y-85925217D02*
X117826542Y-85849026D01*
X117826542Y-85849026D02*
X117788447Y-85696645D01*
X117788447Y-85696645D02*
X117750352Y-85620455D01*
X117750352Y-85620455D02*
X117712257Y-85582360D01*
X117712257Y-85582360D02*
X117636066Y-85544264D01*
X117636066Y-85544264D02*
X117559876Y-85544264D01*
X117559876Y-85544264D02*
X117483685Y-85582360D01*
X117483685Y-85582360D02*
X117445590Y-85620455D01*
X117445590Y-85620455D02*
X117407495Y-85696645D01*
X117407495Y-85696645D02*
X117407495Y-85887122D01*
X117407495Y-85887122D02*
X117445590Y-86001407D01*
X118207495Y-86763312D02*
X118207495Y-86306169D01*
X118207495Y-86534741D02*
X117407495Y-86534741D01*
X117407495Y-86534741D02*
X117521780Y-86458550D01*
X117521780Y-86458550D02*
X117597971Y-86382360D01*
X117597971Y-86382360D02*
X117636066Y-86306169D01*
G36*
X115253782Y-93344142D02*
G01*
X113533292Y-93344142D01*
X113533292Y-92733331D01*
X113633292Y-92733331D01*
X113633314Y-92748034D01*
X113676171Y-93176605D01*
X113677240Y-93181937D01*
X113677240Y-93183774D01*
X113677953Y-93185496D01*
X113679061Y-93191021D01*
X113684243Y-93200682D01*
X113688439Y-93210810D01*
X113691109Y-93213480D01*
X113692895Y-93216809D01*
X113701381Y-93223752D01*
X113709131Y-93231502D01*
X113712619Y-93232946D01*
X113715543Y-93235339D01*
X113726040Y-93238506D01*
X113736167Y-93242701D01*
X113741772Y-93243253D01*
X113743559Y-93243792D01*
X113745387Y-93243609D01*
X113750799Y-93244142D01*
X114179371Y-93244142D01*
X114194003Y-93242701D01*
X114221039Y-93231502D01*
X114241731Y-93210810D01*
X114252930Y-93183774D01*
X114252930Y-93159762D01*
X114404960Y-93159762D01*
X114407035Y-93188952D01*
X114420121Y-93215125D01*
X114442228Y-93234299D01*
X114469991Y-93243553D01*
X114499181Y-93241478D01*
X114525354Y-93228392D01*
X114544528Y-93206285D01*
X114550522Y-93192859D01*
X114779371Y-92506312D01*
X115008220Y-93192859D01*
X115014214Y-93206284D01*
X115033388Y-93228391D01*
X115059561Y-93241478D01*
X115088751Y-93243553D01*
X115116513Y-93234299D01*
X115138621Y-93215125D01*
X115151707Y-93188951D01*
X115153782Y-93159761D01*
X115150522Y-93145425D01*
X114850522Y-92245425D01*
X114844528Y-92231999D01*
X114841016Y-92227950D01*
X114838621Y-92223159D01*
X114831517Y-92216997D01*
X114825354Y-92209892D01*
X114820560Y-92207495D01*
X114816513Y-92203985D01*
X114807591Y-92201011D01*
X114799181Y-92196806D01*
X114793836Y-92196426D01*
X114788751Y-92194731D01*
X114779371Y-92195397D01*
X114769991Y-92194731D01*
X114764905Y-92196426D01*
X114759561Y-92196806D01*
X114751153Y-92201010D01*
X114742228Y-92203985D01*
X114738177Y-92207498D01*
X114733388Y-92209893D01*
X114727229Y-92216993D01*
X114720121Y-92223159D01*
X114717724Y-92227952D01*
X114714214Y-92232000D01*
X114708220Y-92245425D01*
X114408220Y-93145425D01*
X114404960Y-93159762D01*
X114252930Y-93159762D01*
X114252930Y-93154510D01*
X114241731Y-93127474D01*
X114221039Y-93106782D01*
X114194003Y-93095583D01*
X114179371Y-93094142D01*
X113818673Y-93094142D01*
X113798365Y-92891063D01*
X113802973Y-92893367D01*
X113816705Y-92898622D01*
X113819392Y-92898812D01*
X113821882Y-92899844D01*
X113836514Y-92901285D01*
X114050799Y-92901285D01*
X114065431Y-92899844D01*
X114067920Y-92898812D01*
X114070608Y-92898622D01*
X114084340Y-92893367D01*
X114170055Y-92850510D01*
X114176354Y-92846545D01*
X114178182Y-92845788D01*
X114180238Y-92844099D01*
X114182498Y-92842678D01*
X114183797Y-92841179D01*
X114189547Y-92836461D01*
X114232404Y-92793604D01*
X114237122Y-92787854D01*
X114238621Y-92786555D01*
X114240042Y-92784295D01*
X114241731Y-92782239D01*
X114242488Y-92780411D01*
X114246453Y-92774112D01*
X114289310Y-92688398D01*
X114294565Y-92674666D01*
X114294755Y-92671978D01*
X114295787Y-92669489D01*
X114297228Y-92654857D01*
X114297228Y-92440571D01*
X114295787Y-92425939D01*
X114294755Y-92423449D01*
X114294565Y-92420762D01*
X114289310Y-92407030D01*
X114246453Y-92321316D01*
X114242488Y-92315016D01*
X114241731Y-92313189D01*
X114240042Y-92311132D01*
X114238621Y-92308873D01*
X114237122Y-92307573D01*
X114232404Y-92301824D01*
X114189547Y-92258967D01*
X114183798Y-92254249D01*
X114182499Y-92252751D01*
X114180239Y-92251328D01*
X114178182Y-92249640D01*
X114176354Y-92248883D01*
X114170056Y-92244918D01*
X114084340Y-92202060D01*
X114070609Y-92196805D01*
X114067919Y-92196613D01*
X114065431Y-92195583D01*
X114050799Y-92194142D01*
X113836514Y-92194142D01*
X113821882Y-92195583D01*
X113819392Y-92196614D01*
X113816705Y-92196805D01*
X113802973Y-92202060D01*
X113717258Y-92244918D01*
X113710961Y-92248881D01*
X113709131Y-92249640D01*
X113707069Y-92251331D01*
X113704815Y-92252751D01*
X113703518Y-92254246D01*
X113697766Y-92258967D01*
X113654909Y-92301824D01*
X113645582Y-92313189D01*
X113634383Y-92340226D01*
X113634383Y-92369488D01*
X113645582Y-92396525D01*
X113666274Y-92417217D01*
X113693311Y-92428416D01*
X113722573Y-92428416D01*
X113749610Y-92417217D01*
X113760975Y-92407890D01*
X113795226Y-92373639D01*
X113854220Y-92344142D01*
X114033094Y-92344142D01*
X114092086Y-92373638D01*
X114117732Y-92399284D01*
X114147228Y-92458276D01*
X114147228Y-92637152D01*
X114117732Y-92696144D01*
X114092087Y-92721788D01*
X114033094Y-92751285D01*
X113854219Y-92751285D01*
X113795225Y-92721788D01*
X113760975Y-92687538D01*
X113749610Y-92678211D01*
X113746121Y-92676765D01*
X113743198Y-92674374D01*
X113732698Y-92671206D01*
X113722573Y-92667012D01*
X113718798Y-92667012D01*
X113715182Y-92665921D01*
X113704272Y-92667012D01*
X113693311Y-92667012D01*
X113689822Y-92668457D01*
X113686063Y-92668833D01*
X113676401Y-92674015D01*
X113666274Y-92678211D01*
X113663602Y-92680882D01*
X113660276Y-92682667D01*
X113653335Y-92691149D01*
X113645582Y-92698903D01*
X113644136Y-92702391D01*
X113641745Y-92705315D01*
X113638577Y-92715814D01*
X113634383Y-92725940D01*
X113634383Y-92729715D01*
X113633292Y-92733331D01*
X113533292Y-92733331D01*
X113533292Y-92094142D01*
X115253782Y-92094142D01*
X115253782Y-93344142D01*
G37*
X146594295Y-78366666D02*
X145794295Y-78366666D01*
X145794295Y-78366666D02*
X146365723Y-78633332D01*
X146365723Y-78633332D02*
X145794295Y-78899999D01*
X145794295Y-78899999D02*
X146594295Y-78899999D01*
X146060961Y-79623809D02*
X146594295Y-79623809D01*
X146060961Y-79280952D02*
X146480009Y-79280952D01*
X146480009Y-79280952D02*
X146556200Y-79319047D01*
X146556200Y-79319047D02*
X146594295Y-79395237D01*
X146594295Y-79395237D02*
X146594295Y-79509523D01*
X146594295Y-79509523D02*
X146556200Y-79585714D01*
X146556200Y-79585714D02*
X146518104Y-79623809D01*
X146594295Y-80119047D02*
X146556200Y-80042857D01*
X146556200Y-80042857D02*
X146480009Y-80004762D01*
X146480009Y-80004762D02*
X145794295Y-80004762D01*
X146060961Y-80309524D02*
X146060961Y-80614286D01*
X145794295Y-80423810D02*
X146480009Y-80423810D01*
X146480009Y-80423810D02*
X146556200Y-80461905D01*
X146556200Y-80461905D02*
X146594295Y-80538095D01*
X146594295Y-80538095D02*
X146594295Y-80614286D01*
X146594295Y-80880953D02*
X146060961Y-80880953D01*
X145794295Y-80880953D02*
X145832390Y-80842857D01*
X145832390Y-80842857D02*
X145870485Y-80880953D01*
X145870485Y-80880953D02*
X145832390Y-80919048D01*
X145832390Y-80919048D02*
X145794295Y-80880953D01*
X145794295Y-80880953D02*
X145870485Y-80880953D01*
X146594295Y-81719048D02*
X146213342Y-81452381D01*
X146594295Y-81261905D02*
X145794295Y-81261905D01*
X145794295Y-81261905D02*
X145794295Y-81566667D01*
X145794295Y-81566667D02*
X145832390Y-81642857D01*
X145832390Y-81642857D02*
X145870485Y-81680952D01*
X145870485Y-81680952D02*
X145946676Y-81719048D01*
X145946676Y-81719048D02*
X146060961Y-81719048D01*
X146060961Y-81719048D02*
X146137152Y-81680952D01*
X146137152Y-81680952D02*
X146175247Y-81642857D01*
X146175247Y-81642857D02*
X146213342Y-81566667D01*
X146213342Y-81566667D02*
X146213342Y-81261905D01*
X145794295Y-82214286D02*
X145794295Y-82366667D01*
X145794295Y-82366667D02*
X145832390Y-82442857D01*
X145832390Y-82442857D02*
X145908580Y-82519048D01*
X145908580Y-82519048D02*
X146060961Y-82557143D01*
X146060961Y-82557143D02*
X146327628Y-82557143D01*
X146327628Y-82557143D02*
X146480009Y-82519048D01*
X146480009Y-82519048D02*
X146556200Y-82442857D01*
X146556200Y-82442857D02*
X146594295Y-82366667D01*
X146594295Y-82366667D02*
X146594295Y-82214286D01*
X146594295Y-82214286D02*
X146556200Y-82138095D01*
X146556200Y-82138095D02*
X146480009Y-82061905D01*
X146480009Y-82061905D02*
X146327628Y-82023809D01*
X146327628Y-82023809D02*
X146060961Y-82023809D01*
X146060961Y-82023809D02*
X145908580Y-82061905D01*
X145908580Y-82061905D02*
X145832390Y-82138095D01*
X145832390Y-82138095D02*
X145794295Y-82214286D01*
X146594295Y-82900000D02*
X145794295Y-82900000D01*
X145794295Y-82900000D02*
X146365723Y-83166666D01*
X146365723Y-83166666D02*
X145794295Y-83433333D01*
X145794295Y-83433333D02*
X146594295Y-83433333D01*
X145794295Y-84309524D02*
X146594295Y-84576191D01*
X146594295Y-84576191D02*
X145794295Y-84842857D01*
X146594295Y-85528571D02*
X146594295Y-85071428D01*
X146594295Y-85300000D02*
X145794295Y-85300000D01*
X145794295Y-85300000D02*
X145908580Y-85223809D01*
X145908580Y-85223809D02*
X145984771Y-85147619D01*
X145984771Y-85147619D02*
X146022866Y-85071428D01*
X146518104Y-85871429D02*
X146556200Y-85909524D01*
X146556200Y-85909524D02*
X146594295Y-85871429D01*
X146594295Y-85871429D02*
X146556200Y-85833333D01*
X146556200Y-85833333D02*
X146518104Y-85871429D01*
X146518104Y-85871429D02*
X146594295Y-85871429D01*
X145794295Y-86404762D02*
X145794295Y-86480952D01*
X145794295Y-86480952D02*
X145832390Y-86557143D01*
X145832390Y-86557143D02*
X145870485Y-86595238D01*
X145870485Y-86595238D02*
X145946676Y-86633333D01*
X145946676Y-86633333D02*
X146099057Y-86671428D01*
X146099057Y-86671428D02*
X146289533Y-86671428D01*
X146289533Y-86671428D02*
X146441914Y-86633333D01*
X146441914Y-86633333D02*
X146518104Y-86595238D01*
X146518104Y-86595238D02*
X146556200Y-86557143D01*
X146556200Y-86557143D02*
X146594295Y-86480952D01*
X146594295Y-86480952D02*
X146594295Y-86404762D01*
X146594295Y-86404762D02*
X146556200Y-86328571D01*
X146556200Y-86328571D02*
X146518104Y-86290476D01*
X146518104Y-86290476D02*
X146441914Y-86252381D01*
X146441914Y-86252381D02*
X146289533Y-86214285D01*
X146289533Y-86214285D02*
X146099057Y-86214285D01*
X146099057Y-86214285D02*
X145946676Y-86252381D01*
X145946676Y-86252381D02*
X145870485Y-86290476D01*
X145870485Y-86290476D02*
X145832390Y-86328571D01*
X145832390Y-86328571D02*
X145794295Y-86404762D01*
M02*
