G04 #@! TF.GenerationSoftware,KiCad,Pcbnew,9.0.0*
G04 #@! TF.CreationDate,2025-08-10T20:52:22-04:00*
G04 #@! TF.ProjectId,CBM-2332-MultiROM,43424d2d-3233-4333-922d-4d756c746952,rev?*
G04 #@! TF.SameCoordinates,Original*
G04 #@! TF.FileFunction,Copper,L1,Top*
G04 #@! TF.FilePolarity,Positive*
%FSLAX46Y46*%
G04 Gerber Fmt 4.6, Leading zero omitted, Abs format (unit mm)*
G04 Created by KiCad (PCBNEW 9.0.0) date 2025-08-10 20:52:22*
%MOMM*%
%LPD*%
G01*
G04 APERTURE LIST*
G04 Aperture macros list*
%AMRoundRect*
0 Rectangle with rounded corners*
0 $1 Rounding radius*
0 $2 $3 $4 $5 $6 $7 $8 $9 X,Y pos of 4 corners*
0 Add a 4 corners polygon primitive as box body*
4,1,4,$2,$3,$4,$5,$6,$7,$8,$9,$2,$3,0*
0 Add four circle primitives for the rounded corners*
1,1,$1+$1,$2,$3*
1,1,$1+$1,$4,$5*
1,1,$1+$1,$6,$7*
1,1,$1+$1,$8,$9*
0 Add four rect primitives between the rounded corners*
20,1,$1+$1,$2,$3,$4,$5,0*
20,1,$1+$1,$4,$5,$6,$7,0*
20,1,$1+$1,$6,$7,$8,$9,0*
20,1,$1+$1,$8,$9,$2,$3,0*%
G04 Aperture macros list end*
G04 #@! TA.AperFunction,ComponentPad*
%ADD10C,1.422400*%
G04 #@! TD*
G04 #@! TA.AperFunction,ComponentPad*
%ADD11R,1.422400X1.422400*%
G04 #@! TD*
G04 #@! TA.AperFunction,ComponentPad*
%ADD12RoundRect,0.250000X-0.550000X-0.550000X0.550000X-0.550000X0.550000X0.550000X-0.550000X0.550000X0*%
G04 #@! TD*
G04 #@! TA.AperFunction,ComponentPad*
%ADD13C,1.600000*%
G04 #@! TD*
G04 #@! TA.AperFunction,ComponentPad*
%ADD14RoundRect,0.250000X0.550000X-0.550000X0.550000X0.550000X-0.550000X0.550000X-0.550000X-0.550000X0*%
G04 #@! TD*
G04 #@! TA.AperFunction,ComponentPad*
%ADD15R,1.600000X1.600000*%
G04 #@! TD*
G04 #@! TA.AperFunction,ComponentPad*
%ADD16O,1.600000X1.600000*%
G04 #@! TD*
G04 #@! TA.AperFunction,ComponentPad*
%ADD17R,1.700000X1.700000*%
G04 #@! TD*
G04 #@! TA.AperFunction,ComponentPad*
%ADD18O,1.700000X1.700000*%
G04 #@! TD*
G04 #@! TA.AperFunction,ViaPad*
%ADD19C,0.600000*%
G04 #@! TD*
G04 #@! TA.AperFunction,Conductor*
%ADD20C,0.200000*%
G04 #@! TD*
G04 #@! TA.AperFunction,Conductor*
%ADD21C,0.250000*%
G04 #@! TD*
G04 APERTURE END LIST*
D10*
X128574801Y-86309200D03*
X131114801Y-83769200D03*
X128574801Y-83769200D03*
X131114801Y-81229201D03*
X133654801Y-83769200D03*
X133654801Y-81229200D03*
X136194801Y-83769200D03*
X136194801Y-81229200D03*
X138734801Y-83769200D03*
X138734801Y-81229200D03*
X141274801Y-83769200D03*
X141274800Y-81229200D03*
X143814801Y-83769200D03*
X141274801Y-86309200D03*
X143814801Y-86309200D03*
X141274801Y-88849200D03*
X143814801Y-88849200D03*
X141274800Y-91389200D03*
X143814802Y-91389200D03*
X141274801Y-93929200D03*
X138734801Y-91389200D03*
X138734801Y-93929200D03*
X136194801Y-91389200D03*
X136194801Y-93929200D03*
X133654801Y-91389200D03*
X133654801Y-93929200D03*
X131114801Y-91389199D03*
X131114801Y-93929200D03*
X128574801Y-91389200D03*
X131114801Y-88849200D03*
X128574801Y-88849200D03*
D11*
X131114801Y-86309200D03*
D12*
X114401600Y-83566000D03*
D13*
X114401600Y-86106000D03*
X114401600Y-88646000D03*
X114401600Y-91186000D03*
X122021600Y-91186000D03*
X122021600Y-88646000D03*
X122021600Y-86106000D03*
X122021600Y-83566000D03*
D14*
X114585750Y-95192850D03*
D13*
X117125750Y-95192850D03*
X119665750Y-95192850D03*
X122205750Y-95192850D03*
X124745750Y-95192850D03*
X127285750Y-95192850D03*
X129825750Y-95192850D03*
X132365750Y-95192850D03*
X134905750Y-95192850D03*
X137445750Y-95192850D03*
X139985750Y-95192850D03*
X142525750Y-95192850D03*
X142525750Y-79952850D03*
X139985750Y-79952850D03*
X137445750Y-79952850D03*
X134905750Y-79952850D03*
X132365750Y-79952850D03*
X129825750Y-79952850D03*
X127285750Y-79952850D03*
X124745750Y-79952850D03*
X122205750Y-79952850D03*
X119665750Y-79952850D03*
X117125750Y-79952850D03*
X114585750Y-79952850D03*
D15*
X124764800Y-82651600D03*
D16*
X124764800Y-85191600D03*
X124764800Y-87731600D03*
X124764800Y-90271600D03*
X124764800Y-92811600D03*
D17*
X119430800Y-83566000D03*
D18*
X119430800Y-86106000D03*
X119430800Y-88646000D03*
X119430800Y-91186000D03*
D19*
X126380000Y-88830000D03*
X127050000Y-85870000D03*
X135897535Y-96156865D03*
X128574800Y-96561200D03*
D20*
X129794001Y-87630000D02*
X128574801Y-88849200D01*
X140810000Y-87630000D02*
X140665200Y-87630000D01*
X126380000Y-86806800D02*
X124764800Y-85191600D01*
X126380000Y-88830000D02*
X126380000Y-86806800D01*
D21*
X126018400Y-90271600D02*
X124764800Y-90271600D01*
X127050000Y-89240000D02*
X126018400Y-90271600D01*
X127050000Y-85870000D02*
X127050000Y-89240000D01*
D20*
X135766000Y-84960000D02*
X136194801Y-84531199D01*
X130387000Y-84960000D02*
X135766000Y-84960000D01*
X136194801Y-84531199D02*
X136194801Y-83769200D01*
X129820000Y-84393000D02*
X130387000Y-84960000D01*
X129060000Y-82310000D02*
X129820000Y-83070000D01*
X125970000Y-81530000D02*
X126750000Y-82310000D01*
X121338700Y-81038700D02*
X121830000Y-81530000D01*
X121830000Y-81530000D02*
X125970000Y-81530000D01*
X120751600Y-81038700D02*
X121338700Y-81038700D01*
X126750000Y-82310000D02*
X129060000Y-82310000D01*
X129820000Y-83070000D02*
X129820000Y-84393000D01*
X119665750Y-79952850D02*
X120751600Y-81038700D01*
X130750000Y-82642400D02*
X140148001Y-82642400D01*
X140148001Y-82642400D02*
X141274801Y-83769200D01*
X125325551Y-79952850D02*
X126952700Y-81580000D01*
X124745750Y-79952850D02*
X125325551Y-79952850D01*
X126952700Y-81580000D02*
X129687600Y-81580000D01*
X129687600Y-81580000D02*
X130750000Y-82642400D01*
X129894001Y-90070000D02*
X131114801Y-88849200D01*
X127506400Y-90070000D02*
X129894001Y-90070000D01*
X124764800Y-92811600D02*
X127506400Y-90070000D01*
X123647200Y-85191600D02*
X124764800Y-85191600D01*
X122021600Y-83566000D02*
X123647200Y-85191600D01*
X114401600Y-88646000D02*
X114401600Y-86106000D01*
X114401600Y-86106000D02*
X114401600Y-83566000D01*
X114401600Y-91186000D02*
X114401600Y-88646000D01*
X114401600Y-83566000D02*
X114401600Y-80137000D01*
X114401600Y-80137000D02*
X114585750Y-79952850D01*
X142595601Y-87630000D02*
X140810000Y-87630000D01*
X124764800Y-82651600D02*
X125831600Y-82651600D01*
X143814801Y-88849200D02*
X142595601Y-87630000D01*
X138734801Y-85699601D02*
X138734801Y-83769200D01*
X140665200Y-87630000D02*
X138734801Y-85699601D01*
X126949200Y-83769200D02*
X128574801Y-83769200D01*
X125831600Y-82651600D02*
X126949200Y-83769200D01*
X133654801Y-93929200D02*
X133654801Y-95745199D01*
X133106150Y-96293850D02*
X129263050Y-96293850D01*
X128196250Y-95961200D02*
X127863600Y-96293850D01*
X129263050Y-96293850D02*
X128930400Y-95961200D01*
X133654801Y-95745199D02*
X133106150Y-96293850D01*
X120766750Y-96293850D02*
X119665750Y-95192850D01*
X127863600Y-96293850D02*
X120766750Y-96293850D01*
X128930400Y-95961200D02*
X128196250Y-95961200D01*
X130505200Y-90220800D02*
X132486401Y-90220800D01*
X129844800Y-91955200D02*
X129844800Y-90881200D01*
X132486401Y-90220800D02*
X133654801Y-91389200D01*
X129284000Y-92516000D02*
X129844800Y-91955200D01*
X122205750Y-95192850D02*
X123306750Y-94091850D01*
X129844800Y-90881200D02*
X130505200Y-90220800D01*
X123306750Y-94091850D02*
X125110150Y-94091850D01*
X126686000Y-92516000D02*
X129284000Y-92516000D01*
X125110150Y-94091850D02*
X126686000Y-92516000D01*
X143814801Y-79684851D02*
X143814801Y-83769200D01*
X134905750Y-79952850D02*
X136169400Y-78689200D01*
X136169400Y-78689200D02*
X142819150Y-78689200D01*
X142819150Y-78689200D02*
X143814801Y-79684851D01*
X128736800Y-96723200D02*
X129336800Y-96723200D01*
X135331200Y-96723200D02*
X135897535Y-96156865D01*
X128574800Y-96561200D02*
X128736800Y-96723200D01*
X129336800Y-96723200D02*
X135331200Y-96723200D01*
X141274800Y-81229200D02*
X140262600Y-82241400D01*
X132365750Y-81870550D02*
X132365750Y-79952850D01*
X140262600Y-82241400D02*
X132736600Y-82241400D01*
X132736600Y-82241400D02*
X132365750Y-81870550D01*
X134884001Y-92700000D02*
X129778600Y-92700000D01*
X129778600Y-92700000D02*
X127285750Y-95192850D01*
X136194801Y-91389200D02*
X134884001Y-92700000D01*
X135782050Y-95192850D02*
X134905750Y-95192850D01*
X137058400Y-96469200D02*
X135782050Y-95192850D01*
X140614400Y-96469200D02*
X137058400Y-96469200D01*
X141274801Y-93929200D02*
X141274801Y-95808799D01*
X141274801Y-95808799D02*
X140614400Y-96469200D01*
X137445750Y-93454250D02*
X138240800Y-92659200D01*
X138240800Y-92659200D02*
X142544802Y-92659200D01*
X137445750Y-95192850D02*
X137445750Y-93454250D01*
X142544802Y-92659200D02*
X143814802Y-91389200D01*
X132638800Y-78232000D02*
X118846600Y-78232000D01*
X133654801Y-79248001D02*
X132638800Y-78232000D01*
X133654801Y-81229200D02*
X133654801Y-79248001D01*
X118846600Y-78232000D02*
X117125750Y-79952850D01*
X124764800Y-85191600D02*
X125069600Y-84886800D01*
X123139200Y-91186000D02*
X122021600Y-91186000D01*
X124764800Y-92811600D02*
X123139200Y-91186000D01*
X128574801Y-89001599D02*
X128574801Y-88849200D01*
X122478800Y-86106000D02*
X122021600Y-86106000D01*
X124764800Y-87731600D02*
X124053600Y-87020400D01*
X124053600Y-87020400D02*
X123393200Y-87020400D01*
X123393200Y-87020400D02*
X122478800Y-86106000D01*
X123139200Y-88646000D02*
X122021600Y-88646000D01*
X124764800Y-90271600D02*
X123139200Y-88646000D01*
X140810000Y-87630000D02*
X129794001Y-87630000D01*
M02*
