G04 #@! TF.GenerationSoftware,KiCad,Pcbnew,9.0.0*
G04 #@! TF.CreationDate,2025-08-10T20:52:22-04:00*
G04 #@! TF.ProjectId,CBM-2332-MultiROM,43424d2d-3233-4333-922d-4d756c746952,rev?*
G04 #@! TF.SameCoordinates,Original*
G04 #@! TF.FileFunction,Soldermask,Bot*
G04 #@! TF.FilePolarity,Negative*
%FSLAX46Y46*%
G04 Gerber Fmt 4.6, Leading zero omitted, Abs format (unit mm)*
G04 Created by KiCad (PCBNEW 9.0.0) date 2025-08-10 20:52:22*
%MOMM*%
%LPD*%
G01*
G04 APERTURE LIST*
G04 Aperture macros list*
%AMRoundRect*
0 Rectangle with rounded corners*
0 $1 Rounding radius*
0 $2 $3 $4 $5 $6 $7 $8 $9 X,Y pos of 4 corners*
0 Add a 4 corners polygon primitive as box body*
4,1,4,$2,$3,$4,$5,$6,$7,$8,$9,$2,$3,0*
0 Add four circle primitives for the rounded corners*
1,1,$1+$1,$2,$3*
1,1,$1+$1,$4,$5*
1,1,$1+$1,$6,$7*
1,1,$1+$1,$8,$9*
0 Add four rect primitives between the rounded corners*
20,1,$1+$1,$2,$3,$4,$5,0*
20,1,$1+$1,$4,$5,$6,$7,0*
20,1,$1+$1,$6,$7,$8,$9,0*
20,1,$1+$1,$8,$9,$2,$3,0*%
G04 Aperture macros list end*
%ADD10C,1.422400*%
%ADD11R,1.422400X1.422400*%
%ADD12RoundRect,0.250000X-0.550000X-0.550000X0.550000X-0.550000X0.550000X0.550000X-0.550000X0.550000X0*%
%ADD13C,1.600000*%
%ADD14RoundRect,0.250000X0.550000X-0.550000X0.550000X0.550000X-0.550000X0.550000X-0.550000X-0.550000X0*%
%ADD15R,1.600000X1.600000*%
%ADD16O,1.600000X1.600000*%
%ADD17R,1.700000X1.700000*%
%ADD18O,1.700000X1.700000*%
G04 APERTURE END LIST*
D10*
X128574801Y-86309200D03*
X131114801Y-83769200D03*
X128574801Y-83769200D03*
X131114801Y-81229201D03*
X133654801Y-83769200D03*
X133654801Y-81229200D03*
X136194801Y-83769200D03*
X136194801Y-81229200D03*
X138734801Y-83769200D03*
X138734801Y-81229200D03*
X141274801Y-83769200D03*
X141274800Y-81229200D03*
X143814801Y-83769200D03*
X141274801Y-86309200D03*
X143814801Y-86309200D03*
X141274801Y-88849200D03*
X143814801Y-88849200D03*
X141274800Y-91389200D03*
X143814802Y-91389200D03*
X141274801Y-93929200D03*
X138734801Y-91389200D03*
X138734801Y-93929200D03*
X136194801Y-91389200D03*
X136194801Y-93929200D03*
X133654801Y-91389200D03*
X133654801Y-93929200D03*
X131114801Y-91389199D03*
X131114801Y-93929200D03*
X128574801Y-91389200D03*
X131114801Y-88849200D03*
X128574801Y-88849200D03*
D11*
X131114801Y-86309200D03*
D12*
X114401600Y-83566000D03*
D13*
X114401600Y-86106000D03*
X114401600Y-88646000D03*
X114401600Y-91186000D03*
X122021600Y-91186000D03*
X122021600Y-88646000D03*
X122021600Y-86106000D03*
X122021600Y-83566000D03*
D14*
X114585750Y-95192850D03*
D13*
X117125750Y-95192850D03*
X119665750Y-95192850D03*
X122205750Y-95192850D03*
X124745750Y-95192850D03*
X127285750Y-95192850D03*
X129825750Y-95192850D03*
X132365750Y-95192850D03*
X134905750Y-95192850D03*
X137445750Y-95192850D03*
X139985750Y-95192850D03*
X142525750Y-95192850D03*
X142525750Y-79952850D03*
X139985750Y-79952850D03*
X137445750Y-79952850D03*
X134905750Y-79952850D03*
X132365750Y-79952850D03*
X129825750Y-79952850D03*
X127285750Y-79952850D03*
X124745750Y-79952850D03*
X122205750Y-79952850D03*
X119665750Y-79952850D03*
X117125750Y-79952850D03*
X114585750Y-79952850D03*
D15*
X124764800Y-82651600D03*
D16*
X124764800Y-85191600D03*
X124764800Y-87731600D03*
X124764800Y-90271600D03*
X124764800Y-92811600D03*
D17*
X119430800Y-83566000D03*
D18*
X119430800Y-86106000D03*
X119430800Y-88646000D03*
X119430800Y-91186000D03*
M02*
