G04 #@! TF.GenerationSoftware,KiCad,Pcbnew,9.0.0*
G04 #@! TF.CreationDate,2025-08-10T20:52:22-04:00*
G04 #@! TF.ProjectId,CBM-2332-MultiROM,43424d2d-3233-4333-922d-4d756c746952,rev?*
G04 #@! TF.SameCoordinates,Original*
G04 #@! TF.FileFunction,Copper,L2,Bot*
G04 #@! TF.FilePolarity,Positive*
%FSLAX46Y46*%
G04 Gerber Fmt 4.6, Leading zero omitted, Abs format (unit mm)*
G04 Created by KiCad (PCBNEW 9.0.0) date 2025-08-10 20:52:22*
%MOMM*%
%LPD*%
G01*
G04 APERTURE LIST*
G04 Aperture macros list*
%AMRoundRect*
0 Rectangle with rounded corners*
0 $1 Rounding radius*
0 $2 $3 $4 $5 $6 $7 $8 $9 X,Y pos of 4 corners*
0 Add a 4 corners polygon primitive as box body*
4,1,4,$2,$3,$4,$5,$6,$7,$8,$9,$2,$3,0*
0 Add four circle primitives for the rounded corners*
1,1,$1+$1,$2,$3*
1,1,$1+$1,$4,$5*
1,1,$1+$1,$6,$7*
1,1,$1+$1,$8,$9*
0 Add four rect primitives between the rounded corners*
20,1,$1+$1,$2,$3,$4,$5,0*
20,1,$1+$1,$4,$5,$6,$7,0*
20,1,$1+$1,$6,$7,$8,$9,0*
20,1,$1+$1,$8,$9,$2,$3,0*%
G04 Aperture macros list end*
G04 #@! TA.AperFunction,ComponentPad*
%ADD10C,1.422400*%
G04 #@! TD*
G04 #@! TA.AperFunction,ComponentPad*
%ADD11R,1.422400X1.422400*%
G04 #@! TD*
G04 #@! TA.AperFunction,ComponentPad*
%ADD12RoundRect,0.250000X-0.550000X-0.550000X0.550000X-0.550000X0.550000X0.550000X-0.550000X0.550000X0*%
G04 #@! TD*
G04 #@! TA.AperFunction,ComponentPad*
%ADD13C,1.600000*%
G04 #@! TD*
G04 #@! TA.AperFunction,ComponentPad*
%ADD14RoundRect,0.250000X0.550000X-0.550000X0.550000X0.550000X-0.550000X0.550000X-0.550000X-0.550000X0*%
G04 #@! TD*
G04 #@! TA.AperFunction,ComponentPad*
%ADD15R,1.600000X1.600000*%
G04 #@! TD*
G04 #@! TA.AperFunction,ComponentPad*
%ADD16O,1.600000X1.600000*%
G04 #@! TD*
G04 #@! TA.AperFunction,ComponentPad*
%ADD17R,1.700000X1.700000*%
G04 #@! TD*
G04 #@! TA.AperFunction,ComponentPad*
%ADD18O,1.700000X1.700000*%
G04 #@! TD*
G04 #@! TA.AperFunction,ViaPad*
%ADD19C,0.600000*%
G04 #@! TD*
G04 #@! TA.AperFunction,Conductor*
%ADD20C,0.250000*%
G04 #@! TD*
G04 #@! TA.AperFunction,Conductor*
%ADD21C,0.200000*%
G04 #@! TD*
G04 APERTURE END LIST*
D10*
X128574801Y-86309200D03*
X131114801Y-83769200D03*
X128574801Y-83769200D03*
X131114801Y-81229201D03*
X133654801Y-83769200D03*
X133654801Y-81229200D03*
X136194801Y-83769200D03*
X136194801Y-81229200D03*
X138734801Y-83769200D03*
X138734801Y-81229200D03*
X141274801Y-83769200D03*
X141274800Y-81229200D03*
X143814801Y-83769200D03*
X141274801Y-86309200D03*
X143814801Y-86309200D03*
X141274801Y-88849200D03*
X143814801Y-88849200D03*
X141274800Y-91389200D03*
X143814802Y-91389200D03*
X141274801Y-93929200D03*
X138734801Y-91389200D03*
X138734801Y-93929200D03*
X136194801Y-91389200D03*
X136194801Y-93929200D03*
X133654801Y-91389200D03*
X133654801Y-93929200D03*
X131114801Y-91389199D03*
X131114801Y-93929200D03*
X128574801Y-91389200D03*
X131114801Y-88849200D03*
X128574801Y-88849200D03*
D11*
X131114801Y-86309200D03*
D12*
X114401600Y-83566000D03*
D13*
X114401600Y-86106000D03*
X114401600Y-88646000D03*
X114401600Y-91186000D03*
X122021600Y-91186000D03*
X122021600Y-88646000D03*
X122021600Y-86106000D03*
X122021600Y-83566000D03*
D14*
X114585750Y-95192850D03*
D13*
X117125750Y-95192850D03*
X119665750Y-95192850D03*
X122205750Y-95192850D03*
X124745750Y-95192850D03*
X127285750Y-95192850D03*
X129825750Y-95192850D03*
X132365750Y-95192850D03*
X134905750Y-95192850D03*
X137445750Y-95192850D03*
X139985750Y-95192850D03*
X142525750Y-95192850D03*
X142525750Y-79952850D03*
X139985750Y-79952850D03*
X137445750Y-79952850D03*
X134905750Y-79952850D03*
X132365750Y-79952850D03*
X129825750Y-79952850D03*
X127285750Y-79952850D03*
X124745750Y-79952850D03*
X122205750Y-79952850D03*
X119665750Y-79952850D03*
X117125750Y-79952850D03*
X114585750Y-79952850D03*
D15*
X124764800Y-82651600D03*
D16*
X124764800Y-85191600D03*
X124764800Y-87731600D03*
X124764800Y-90271600D03*
X124764800Y-92811600D03*
D17*
X119430800Y-83566000D03*
D18*
X119430800Y-86106000D03*
X119430800Y-88646000D03*
X119430800Y-91186000D03*
D19*
X126380000Y-88830000D03*
X127050000Y-85870000D03*
X135897535Y-96156865D03*
X128574800Y-96561200D03*
D20*
X127128400Y-87731600D02*
X124764800Y-87731600D01*
X127260000Y-87600000D02*
X127128400Y-87731600D01*
D21*
X126380000Y-88830000D02*
X126380000Y-89194399D01*
X126380000Y-89194399D02*
X128574801Y-91389200D01*
D20*
X132710000Y-87600000D02*
X127260000Y-87600000D01*
X132860000Y-87450000D02*
X132710000Y-87600000D01*
X133654801Y-83769200D02*
X132860000Y-84564001D01*
X132860000Y-84564001D02*
X132860000Y-87450000D01*
X127050000Y-82710000D02*
X127050000Y-85870000D01*
X127310000Y-82450000D02*
X127050000Y-82710000D01*
X128530799Y-81229201D02*
X127310000Y-82450000D01*
X131114801Y-81229201D02*
X128530799Y-81229201D01*
D21*
X128270001Y-86614000D02*
X123799600Y-86614000D01*
X114435000Y-88679400D02*
X114401600Y-88646000D01*
X128574801Y-86309200D02*
X131114801Y-83769200D01*
X123799600Y-86614000D02*
X123037600Y-87376000D01*
X115671600Y-87376000D02*
X114401600Y-86106000D01*
X123037600Y-87376000D02*
X115671600Y-87376000D01*
X128574801Y-86309200D02*
X128270001Y-86614000D01*
X138169200Y-83769200D02*
X136900000Y-82500000D01*
X138734801Y-83769200D02*
X138169200Y-83769200D01*
X143814801Y-88849200D02*
X145034000Y-90068399D01*
X145034000Y-90068399D02*
X145034000Y-92608400D01*
X145034000Y-92608400D02*
X142525750Y-95116650D01*
X142525750Y-95116650D02*
X142525750Y-95192850D01*
X129844001Y-82500000D02*
X128574801Y-83769200D01*
X136900000Y-82500000D02*
X129844001Y-82500000D01*
X119844850Y-96570800D02*
X115671600Y-96570800D01*
X120766750Y-95648900D02*
X119844850Y-96570800D01*
X120766750Y-95074800D02*
X120766750Y-95648900D01*
X115671600Y-96570800D02*
X115671600Y-96278700D01*
X131114801Y-93929200D02*
X121912350Y-93929200D01*
X121912350Y-93929200D02*
X120766750Y-95074800D01*
X115671600Y-96278700D02*
X114585750Y-95192850D01*
X145135600Y-82600800D02*
X142525750Y-79990950D01*
X142525750Y-79990950D02*
X142525750Y-79952850D01*
X141274801Y-88849200D02*
X142524001Y-87600000D01*
X145135600Y-86664800D02*
X145135600Y-82600800D01*
X144200400Y-87600000D02*
X145135600Y-86664800D01*
X142524001Y-87600000D02*
X144200400Y-87600000D01*
X129794000Y-92710000D02*
X127101600Y-92710000D01*
X121310400Y-93878400D02*
X118440200Y-93878400D01*
X123748800Y-91440000D02*
X121310400Y-93878400D01*
X118440200Y-93878400D02*
X117125750Y-95192850D01*
X125831600Y-91440000D02*
X123748800Y-91440000D01*
X127101600Y-92710000D02*
X125831600Y-91440000D01*
X131114801Y-91389199D02*
X129794000Y-92710000D01*
X140700000Y-82500000D02*
X141800000Y-82500000D01*
X139985750Y-79952850D02*
X139985750Y-81785750D01*
X139985750Y-81785750D02*
X140700000Y-82500000D01*
X141800000Y-82500000D02*
X142600000Y-83300000D01*
X142600000Y-83300000D02*
X142600000Y-85094399D01*
X142600000Y-85094399D02*
X143814801Y-86309200D01*
X138300000Y-82500000D02*
X139200000Y-82500000D01*
X139200000Y-82500000D02*
X140000000Y-83300000D01*
X140000000Y-85034399D02*
X141274801Y-86309200D01*
X137445750Y-79952850D02*
X137445750Y-81645750D01*
X140000000Y-83300000D02*
X140000000Y-85034399D01*
X137445750Y-81645750D02*
X138300000Y-82500000D01*
X127863600Y-96723200D02*
X128625600Y-96723200D01*
X135760550Y-96293850D02*
X136067800Y-95986600D01*
X124745750Y-95192850D02*
X126276100Y-96723200D01*
X136194801Y-95859599D02*
X136194801Y-93929200D01*
X127863600Y-96723200D02*
X128412800Y-96723200D01*
X136067800Y-95986600D02*
X136194801Y-95859599D01*
X128412800Y-96723200D02*
X128574800Y-96561200D01*
X126276100Y-96723200D02*
X127863600Y-96723200D01*
X136067800Y-95986600D02*
X135897535Y-96156865D01*
X129825750Y-79952850D02*
X131044000Y-78734600D01*
X136194801Y-79294801D02*
X136194801Y-81229200D01*
X131044000Y-78734600D02*
X135634600Y-78734600D01*
X135634600Y-78734600D02*
X136194801Y-79294801D01*
X138734801Y-93929200D02*
X138734801Y-95460849D01*
X130810000Y-96875600D02*
X129825750Y-95891350D01*
X138734801Y-95460849D02*
X137320050Y-96875600D01*
X137320050Y-96875600D02*
X130810000Y-96875600D01*
X129825750Y-95891350D02*
X129825750Y-95192850D01*
X128905000Y-78333600D02*
X127285750Y-79952850D01*
X137383550Y-78333600D02*
X128905000Y-78333600D01*
X138734801Y-81229200D02*
X138734801Y-79684851D01*
X138734801Y-79684851D02*
X137383550Y-78333600D01*
X133178550Y-92659200D02*
X137464801Y-92659200D01*
X132365750Y-93472000D02*
X133178550Y-92659200D01*
X137464801Y-92659200D02*
X138734801Y-91389200D01*
X132365750Y-95192850D02*
X132365750Y-93472000D01*
X141274800Y-91921148D02*
X141274800Y-91389200D01*
X139985750Y-95192850D02*
X139985750Y-93210198D01*
X139985750Y-93210198D02*
X141274800Y-91921148D01*
X122021600Y-83566000D02*
X119430800Y-83566000D01*
X122021600Y-91186000D02*
X119430800Y-91186000D01*
X122021600Y-88646000D02*
X119430800Y-88646000D01*
X125069600Y-89966800D02*
X124764800Y-90271600D01*
X122021600Y-86106000D02*
X119430800Y-86106000D01*
M02*
