G04 #@! TF.FileFunction,Soldermask,Top*
%FSLAX46Y46*%
G04 Gerber Fmt 4.6, Leading zero omitted, Abs format (unit mm)*
G04 Created by KiCad (PCBNEW 4.0.4-stable) date 06/24/17 18:47:56*
%MOMM*%
%LPD*%
G01*
G04 APERTURE LIST*
%ADD10C,0.100000*%
%ADD11C,1.800000*%
%ADD12O,1.800000X1.800000*%
%ADD13R,2.800000X2.000000*%
%ADD14O,2.800000X2.000000*%
%ADD15R,1.400000X1.400000*%
%ADD16O,1.400000X1.400000*%
G04 APERTURE END LIST*
D10*
D11*
X149750000Y-101650000D03*
D12*
X144670000Y-101650000D03*
D11*
X168150000Y-101650000D03*
D12*
X173230000Y-101650000D03*
D11*
X152100000Y-101650000D03*
D12*
X157180000Y-101650000D03*
D11*
X165350000Y-101650000D03*
D12*
X160270000Y-101650000D03*
D13*
X167200000Y-104950000D03*
D14*
X174820000Y-112570000D03*
X167200000Y-107490000D03*
X174820000Y-110030000D03*
X167200000Y-110030000D03*
X174820000Y-107490000D03*
X167200000Y-112570000D03*
X174820000Y-104950000D03*
D13*
X144250000Y-110100000D03*
D14*
X159490000Y-138040000D03*
X144250000Y-112640000D03*
X159490000Y-135500000D03*
X144250000Y-115180000D03*
X159490000Y-132960000D03*
X144250000Y-117720000D03*
X159490000Y-130420000D03*
X144250000Y-120260000D03*
X159490000Y-127880000D03*
X144250000Y-122800000D03*
X159490000Y-125340000D03*
X144250000Y-125340000D03*
X159490000Y-122800000D03*
X144250000Y-127880000D03*
X159490000Y-120260000D03*
X144250000Y-130420000D03*
X159490000Y-117720000D03*
X144250000Y-132960000D03*
X159490000Y-115180000D03*
X144250000Y-135500000D03*
X159490000Y-112640000D03*
X144250000Y-138040000D03*
X159490000Y-110100000D03*
D13*
X148501100Y-105003600D03*
D14*
X163741100Y-138023600D03*
X148501100Y-107543600D03*
X163741100Y-135483600D03*
X148501100Y-110083600D03*
X163741100Y-132943600D03*
X148501100Y-112623600D03*
X163741100Y-130403600D03*
X148501100Y-115163600D03*
X163741100Y-127863600D03*
X148501100Y-117703600D03*
X163741100Y-125323600D03*
X148501100Y-120243600D03*
X163741100Y-122783600D03*
X148501100Y-122783600D03*
X163741100Y-120243600D03*
X148501100Y-125323600D03*
X163741100Y-117703600D03*
X148501100Y-127863600D03*
X163741100Y-115163600D03*
X148501100Y-130403600D03*
X163741100Y-112623600D03*
X148501100Y-132943600D03*
X163741100Y-110083600D03*
X148501100Y-135483600D03*
X163741100Y-107543600D03*
X148501100Y-138023600D03*
X163741100Y-105003600D03*
D13*
X167750000Y-122800000D03*
D14*
X175370000Y-138040000D03*
X167750000Y-125340000D03*
X175370000Y-135500000D03*
X167750000Y-127880000D03*
X175370000Y-132960000D03*
X167750000Y-130420000D03*
X175370000Y-130420000D03*
X167750000Y-132960000D03*
X175370000Y-127880000D03*
X167750000Y-135500000D03*
X175370000Y-125340000D03*
X167750000Y-138040000D03*
X175370000Y-122800000D03*
D15*
X169164000Y-116332000D03*
D16*
X169164000Y-117602000D03*
X169164000Y-118872000D03*
M02*
