M48
;DRILL file {KiCad 4.0.4-stable} date 06/24/17 18:47:53
;FORMAT={-:-/ absolute / inch / decimal}
FMAT,2
INCH,TZ
T1C0.016
T2C0.026
T3C0.028
T4C0.031
%
G90
G05
M72
T1
X6.31Y-4.11
X6.4Y-4.02
T2
X6.66Y-4.58
X6.66Y-4.63
X6.66Y-4.68
T3
X5.6957Y-4.002
X5.8957Y-4.002
X5.9882Y-4.002
X6.1882Y-4.002
X6.3098Y-4.002
X6.5098Y-4.002
X6.6201Y-4.002
X6.8201Y-4.002
T4
X5.6791Y-4.3346
X5.6791Y-4.4346
X5.6791Y-4.5346
X5.6791Y-4.6346
X5.6791Y-4.7346
X5.6791Y-4.8346
X5.6791Y-4.9346
X5.6791Y-5.0346
X5.6791Y-5.1346
X5.6791Y-5.2346
X5.6791Y-5.3346
X5.6791Y-5.4346
X5.8465Y-4.134
X5.8465Y-4.234
X5.8465Y-4.334
X5.8465Y-4.434
X5.8465Y-4.534
X5.8465Y-4.634
X5.8465Y-4.734
X5.8465Y-4.834
X5.8465Y-4.934
X5.8465Y-5.034
X5.8465Y-5.134
X5.8465Y-5.234
X5.8465Y-5.334
X5.8465Y-5.434
X6.2791Y-4.3346
X6.2791Y-4.4346
X6.2791Y-4.5346
X6.2791Y-4.6346
X6.2791Y-4.7346
X6.2791Y-4.8346
X6.2791Y-4.9346
X6.2791Y-5.0346
X6.2791Y-5.1346
X6.2791Y-5.2346
X6.2791Y-5.3346
X6.2791Y-5.4346
X6.4465Y-4.134
X6.4465Y-4.234
X6.4465Y-4.334
X6.4465Y-4.434
X6.4465Y-4.534
X6.4465Y-4.634
X6.4465Y-4.734
X6.4465Y-4.834
X6.4465Y-4.934
X6.4465Y-5.034
X6.4465Y-5.134
X6.4465Y-5.234
X6.4465Y-5.334
X6.4465Y-5.434
X6.5827Y-4.1319
X6.5827Y-4.2319
X6.5827Y-4.3319
X6.5827Y-4.4319
X6.6043Y-4.8346
X6.6043Y-4.9346
X6.6043Y-5.0346
X6.6043Y-5.1346
X6.6043Y-5.2346
X6.6043Y-5.3346
X6.6043Y-5.4346
X6.8827Y-4.1319
X6.8827Y-4.2319
X6.8827Y-4.3319
X6.8827Y-4.4319
X6.9043Y-4.8346
X6.9043Y-4.9346
X6.9043Y-5.0346
X6.9043Y-5.1346
X6.9043Y-5.2346
X6.9043Y-5.3346
X6.9043Y-5.4346
T0
M30
